<svg width="405" height="54" viewBox="0 0 405 54" fill="none" xmlns="http://www.w3.org/2000/svg">
<path d="M8.27547 24.42V19.62L8.21547 10.44C8.21547 8.12 7.55547 6.96 6.23547 6.96C5.99547 6.96 5.67547 7 5.27547 7.08C4.59547 7.2 4.03547 7.26 3.59547 7.26C2.83547 7.26 2.17547 7.02 1.61547 6.54C1.09547 6.02 0.835469 5.36 0.835469 4.56C0.835469 2.68 1.97547 1.74 4.25547 1.74C4.33547 1.74 4.45547 1.74 4.61547 1.74C4.81547 1.74 5.01547 1.76 5.21547 1.8L9.11547 2.22C9.87547 2.3 10.6555 2.36 11.4555 2.4C12.2955 2.44 13.1755 2.46 14.0955 2.46C15.0955 2.46 17.2155 2.4 20.4555 2.28L27.1755 2.04H27.1155L30.1755 1.86C30.3755 1.82 30.6355 1.8 30.9555 1.8C31.3155 1.8 31.6555 1.8 31.9755 1.8C34.6955 1.8 36.0555 2.98 36.0555 5.34C36.0555 5.74 36.0155 6.2 35.9355 6.72C35.8955 7.24 35.8355 7.86 35.7555 8.58C35.6755 9.3 35.5955 9.92 35.5155 10.44C35.4755 10.96 35.4555 11.38 35.4555 11.7C35.4555 12.02 35.4555 12.34 35.4555 12.66C35.4955 12.98 35.5355 13.36 35.5755 13.8C35.6155 14.24 35.6355 14.7 35.6355 15.18C35.6755 15.66 35.6955 16.12 35.6955 16.56C35.6955 18.68 34.6755 19.74 32.6355 19.74C30.5555 19.74 29.5155 18.56 29.5155 16.2C29.5155 15.92 29.5155 15.58 29.5155 15.18C29.5155 14.74 29.5355 14.24 29.5755 13.68C29.5755 13.56 29.5755 13.44 29.5755 13.32C29.6155 13.16 29.6355 13.04 29.6355 12.96C29.6755 12.6 29.6955 12.28 29.6955 12C29.6955 11.68 29.6955 11.42 29.6955 11.22C29.6955 9.5 29.3155 8.48 28.5555 8.16C27.3955 7.64 24.7955 7.38 20.7555 7.38C17.5155 7.38 15.6955 7.62 15.2955 8.1C15.0555 8.42 14.9355 10 14.9355 12.84V17.1C14.9355 17.78 15.0355 18.22 15.2355 18.42C15.4355 18.58 15.9555 18.66 16.7955 18.66H18.7155C20.5555 18.66 21.4755 18.02 21.4755 16.74C21.4755 16.5 21.4555 16.24 21.4155 15.96C21.3755 15.64 21.3355 15.32 21.2955 15C21.2555 14.68 21.2155 14.38 21.1755 14.1C21.1755 13.78 21.1755 13.52 21.1755 13.32C21.1755 11.32 22.1955 10.32 24.2355 10.32C26.1955 10.32 27.1755 11.44 27.1755 13.68C27.1755 13.76 27.1755 13.88 27.1755 14.04C27.1755 14.16 27.1555 14.3 27.1155 14.46C27.1155 14.54 27.0955 14.64 27.0555 14.76C27.0555 14.88 27.0555 15.02 27.0555 15.18L26.6955 18.3C26.6155 18.98 26.5555 19.56 26.5155 20.04C26.4755 20.52 26.4555 20.92 26.4555 21.24C26.4555 22.76 26.6355 24.72 26.9955 27.12C27.1155 27.96 27.1755 28.78 27.1755 29.58C27.1755 31.62 26.1555 32.64 24.1155 32.64C22.1555 32.64 21.1755 31.56 21.1755 29.4C21.1755 29.2 21.1755 28.94 21.1755 28.62C21.1755 28.3 21.1955 27.96 21.2355 27.6C21.2755 27.24 21.2955 26.92 21.2955 26.64C21.3355 26.36 21.3555 26.12 21.3555 25.92C21.3555 25.04 21.1355 24.48 20.6955 24.24C20.4955 24.08 19.8355 24 18.7155 24H16.9155C15.8755 24 15.2755 24.08 15.1155 24.24C14.9955 24.36 14.9355 25.02 14.9355 26.22V33.06C14.9355 34.58 15.0555 35.6 15.2955 36.12C15.5755 36.64 16.0955 36.9 16.8555 36.9C16.9355 36.9 17.0755 36.9 17.2755 36.9C17.4755 36.9 17.7155 36.88 17.9955 36.84C18.2755 36.84 18.5355 36.84 18.7755 36.84C19.0155 36.8 19.2155 36.78 19.3755 36.78C21.8155 36.78 23.0355 37.7 23.0355 39.54C23.0355 40.34 22.7355 41 22.1355 41.52C21.5355 42.04 20.8155 42.3 19.9755 42.3C19.5355 42.3 19.0955 42.26 18.6555 42.18C18.2155 42.14 17.6955 42.08 17.0955 42C16.2555 41.84 15.3555 41.74 14.3955 41.7C13.4755 41.62 12.5155 41.58 11.5155 41.58C10.1955 41.58 8.75547 41.7 7.19547 41.94L5.21547 42.24C5.05547 42.24 4.91547 42.26 4.79547 42.3H4.37547C2.01547 42.3 0.835469 41.34 0.835469 39.42C0.835469 37.66 1.75547 36.78 3.59547 36.78C3.63547 36.78 3.69547 36.8 3.77547 36.84C3.85547 36.84 3.95547 36.84 4.07547 36.84C4.19547 36.84 4.33547 36.84 4.49547 36.84C4.69547 36.84 4.91547 36.86 5.15547 36.9C5.35547 36.94 5.55547 36.98 5.75547 37.02C5.95547 37.02 6.13547 37.02 6.29547 37.02C6.97547 37.02 7.43547 36.78 7.67547 36.3C7.95547 35.78 8.11547 34.86 8.15547 33.54L8.27547 24.42ZM52.345 42.96C48.065 42.96 44.645 41.5 42.085 38.58C39.525 35.66 38.245 31.8 38.245 27C38.245 22.16 39.525 18.32 42.085 15.48C44.645 12.52 48.125 11.04 52.525 11.04C56.925 11.04 60.425 12.48 63.025 15.36C65.545 18.2 66.805 22.02 66.805 26.82C66.805 31.7 65.505 35.58 62.905 38.46C60.305 41.46 56.785 42.96 52.345 42.96ZM52.645 16.38C50.245 16.38 48.365 17.24 47.005 18.96C45.685 20.68 44.965 23.14 44.845 26.34V27C44.845 30.32 45.505 32.92 46.825 34.8C48.145 36.68 50.005 37.62 52.405 37.62C54.845 37.62 56.765 36.7 58.165 34.86C59.605 32.98 60.325 30.34 60.325 26.94C60.325 19.9 57.765 16.38 52.645 16.38ZM96.8589 42.24C95.3389 42.24 94.4789 41.62 94.2789 40.38C92.1989 42.1 89.5589 42.96 86.3589 42.96C81.5189 42.96 78.1389 41.44 76.2189 38.4C75.8189 37.76 75.4989 37.04 75.2589 36.24C75.0189 35.44 74.8789 34.64 74.8389 33.84C74.7989 33.36 74.7789 32.68 74.7789 31.8C74.7789 30.92 74.7789 29.9 74.7789 28.74V24.06C74.7789 19.38 74.5389 17.04 74.0589 17.04C73.9789 17.04 73.8589 17.06 73.6989 17.1C73.5389 17.1 73.3589 17.12 73.1589 17.16C72.9589 17.2 72.6589 17.24 72.2589 17.28C71.8989 17.32 71.7589 17.34 71.8389 17.34C69.8789 17.34 68.8989 16.44 68.8989 14.64C68.8989 12.92 70.0389 12.06 72.3189 12.06C72.5189 12.06 72.7589 12.08 73.0389 12.12C73.3589 12.12 73.6789 12.14 73.9989 12.18C74.3189 12.22 74.6189 12.26 74.8989 12.3C75.2189 12.3 75.4789 12.3 75.6789 12.3C75.7989 12.3 76.0189 12.3 76.3389 12.3C76.6589 12.26 76.9789 12.2 77.2989 12.12C77.4589 12.08 77.6189 12.06 77.7789 12.06C77.9389 12.02 78.1389 12 78.3789 12C80.2189 12 81.1389 12.98 81.1389 14.94V16.14L81.0789 19.92L80.8989 24.12V27.72C80.8989 29.36 80.9589 30.74 81.0789 31.86C81.2389 32.98 81.4189 33.88 81.6189 34.56C82.3789 36.6 84.1589 37.62 86.9589 37.62C88.3589 37.62 89.5989 37.3 90.6789 36.66C91.7989 36.02 92.5789 35.16 93.0189 34.08C93.5789 32.72 93.8589 30.02 93.8589 25.98V19.14C93.7389 17.86 93.5589 17.22 93.3189 17.22C93.1589 17.22 92.8789 17.26 92.4789 17.34H91.6389C89.6789 17.34 88.6989 16.48 88.6989 14.76C88.6989 12.92 89.7589 12 91.8789 12C92.0789 12 92.3189 12.02 92.5989 12.06C92.8789 12.06 93.1789 12.08 93.4989 12.12C93.8189 12.16 94.1189 12.2 94.3989 12.24C94.6789 12.24 94.8789 12.24 94.9989 12.24C95.1189 12.24 95.2789 12.24 95.4789 12.24C95.7189 12.24 95.9789 12.22 96.2589 12.18C96.4989 12.14 96.7389 12.12 96.9789 12.12C97.2589 12.08 97.4989 12.06 97.6989 12.06C99.4989 12.06 100.399 12.92 100.399 14.64C100.399 15.2 100.359 15.68 100.279 16.08V16.02C100.199 16.74 100.119 17.62 100.039 18.66C99.9989 19.7 99.9789 20.9 99.9789 22.26V31.02C99.9789 33.26 99.9989 34.48 100.039 34.68C100.239 36.32 100.439 37.14 100.639 37.14C100.719 37.14 100.859 37.14 101.059 37.14C101.259 37.1 101.479 37.06 101.719 37.02C101.919 36.98 102.179 36.94 102.499 36.9C102.859 36.86 102.999 36.84 102.919 36.84C104.879 36.84 105.859 37.72 105.859 39.48C105.859 41.32 104.739 42.24 102.499 42.24C102.339 42.24 102.139 42.24 101.899 42.24C101.699 42.24 101.499 42.22 101.299 42.18C101.219 42.18 101.139 42.16 101.059 42.12C100.979 42.12 100.919 42.12 100.879 42.12C99.9189 42 99.3789 41.94 99.2589 41.94C99.2189 41.94 99.1589 41.96 99.0789 42C99.0389 42 98.9789 42 98.8989 42C98.6589 42 98.4389 42.02 98.2389 42.06H98.2989C97.8189 42.18 97.3389 42.24 96.8589 42.24ZM116.247 12.06C117.567 12.06 118.347 12.58 118.587 13.62C120.547 11.9 122.887 11.04 125.607 11.04C127.087 11.04 128.427 11.26 129.627 11.7C130.827 12.1 131.867 12.7 132.747 13.5C133.627 14.26 134.307 15.18 134.787 16.26C135.267 17.34 135.507 18.54 135.507 19.86C135.507 21.78 135.007 23.34 134.007 24.54C133.007 25.7 131.667 26.28 129.987 26.28C128.827 26.28 127.847 25.94 127.047 25.26C126.287 24.58 125.907 23.74 125.907 22.74C125.907 21.94 126.227 21.22 126.867 20.58C127.547 19.94 128.307 19.62 129.147 19.62C129.227 19.62 129.207 19.6 129.087 19.56C129.007 19.52 129.067 19.54 129.267 19.62V19.32C129.267 18.44 128.867 17.7 128.067 17.1C127.307 16.5 126.347 16.2 125.187 16.2C122.667 16.2 120.987 17.36 120.147 19.68C119.587 21.28 119.307 23.64 119.307 26.76V30.54C119.307 31.7 119.307 32.62 119.307 33.3C119.307 33.98 119.327 34.4 119.367 34.56C119.567 36.32 119.827 37.2 120.147 37.2C120.387 37.2 120.607 37.2 120.807 37.2C121.007 37.16 121.207 37.12 121.407 37.08C121.927 36.92 122.387 36.84 122.787 36.84C124.627 36.84 125.547 37.7 125.547 39.42C125.547 41.3 124.447 42.24 122.247 42.24H122.067C121.747 42.24 121.347 42.22 120.867 42.18C120.427 42.14 119.907 42.08 119.307 42C118.147 41.88 117.327 41.82 116.847 41.82C116.087 41.82 115.427 41.84 114.867 41.88C114.307 41.88 113.807 41.9 113.367 41.94L110.127 42.24C107.927 42.24 106.827 41.3 106.827 39.42C106.827 37.74 107.867 36.9 109.947 36.9C110.147 36.9 110.307 36.9 110.427 36.9C110.587 36.86 110.767 36.88 110.967 36.96L111.687 37.14H112.167C112.207 37.18 112.267 37.2 112.347 37.2H112.407C112.767 37.2 112.967 36.6 113.007 35.4C113.007 34.92 113.027 34.44 113.067 33.96C113.107 33.48 113.127 33 113.127 32.52L112.947 19.62C112.867 18.14 112.667 17.3 112.347 17.1C112.267 17.1 112.067 17.12 111.747 17.16C111.427 17.2 111.207 17.22 111.087 17.22H111.207C110.727 17.34 110.227 17.4 109.707 17.4C107.827 17.4 106.887 16.52 106.887 14.76C106.887 12.92 108.007 12 110.247 12C110.327 12.04 110.567 12.08 110.967 12.12C111.367 12.12 111.727 12.14 112.047 12.18C112.367 12.22 112.667 12.26 112.947 12.3C113.267 12.3 113.507 12.3 113.667 12.3C113.747 12.3 113.847 12.3 113.967 12.3C114.127 12.3 114.307 12.28 114.507 12.24C114.587 12.24 114.647 12.24 114.687 12.24C114.767 12.2 114.867 12.18 114.987 12.18C115.387 12.1 115.807 12.06 116.247 12.06ZM187.9 21.6C187.9 26.2 187.14 30.12 185.62 33.36C184.14 36.56 181.82 39.18 178.66 41.22V45.18C178.66 47.38 179.44 48.48 181 48.48C181.88 48.48 182.48 48.26 182.8 47.82V47.88C183.04 47.52 183.18 46.76 183.22 45.6C183.3 43.28 184.32 42.12 186.28 42.12C188.4 42.12 189.46 43.32 189.46 45.72C189.46 48.08 188.7 49.98 187.18 51.42C185.66 52.86 183.64 53.58 181.12 53.58C175.64 53.58 172.9 51.08 172.9 46.08V43.08C172.06 43.2 171.2 43.26 170.32 43.26C167.56 43.26 165.1 42.78 162.94 41.82C160.82 40.86 158.96 39.42 157.36 37.5C154.2 33.66 152.62 28.58 152.62 22.26C152.62 15.58 154.2 10.34 157.36 6.54C160.52 2.66 164.9 0.719999 170.5 0.719999C175.94 0.719999 180.2 2.62 183.28 6.42C186.36 10.14 187.9 15.2 187.9 21.6ZM178.72 33.06L178.54 33.42C178.5 33.5 178.48 33.52 178.48 33.48C178.52 33.4 178.6 33.24 178.72 33V33.06ZM170.32 24.78C172.96 24.78 175 25.52 176.44 27C177.92 28.44 178.68 30.44 178.72 33L179.2 31.86C180.32 28.9 180.88 25.44 180.88 21.48C180.88 16.68 179.96 12.98 178.12 10.38C176.32 7.78 173.78 6.48 170.5 6.48C166.98 6.48 164.26 7.84 162.34 10.56C160.42 13.28 159.46 17.12 159.46 22.08C159.46 24.28 159.6 26.2 159.88 27.84C160.16 29.48 160.62 30.96 161.26 32.28C161.26 31.2 161.48 30.22 161.92 29.34C162.4 28.42 163.06 27.6 163.9 26.88C165.62 25.48 167.76 24.78 170.32 24.78ZM170.38 37.92C171.14 37.92 172 37.8 172.96 37.56V33.72C172.96 31.2 172 29.94 170.08 29.94C168.96 29.94 168.04 30.28 167.32 30.96C166.64 31.64 166.3 32.56 166.3 33.72C166.3 35 166.66 36.02 167.38 36.78C168.14 37.54 169.14 37.92 170.38 37.92ZM217.796 42.24C216.276 42.24 215.416 41.62 215.216 40.38C213.136 42.1 210.496 42.96 207.296 42.96C202.456 42.96 199.076 41.44 197.156 38.4C196.756 37.76 196.436 37.04 196.196 36.24C195.956 35.44 195.816 34.64 195.776 33.84C195.736 33.36 195.716 32.68 195.716 31.8C195.716 30.92 195.716 29.9 195.716 28.74V24.06C195.716 19.38 195.476 17.04 194.996 17.04C194.916 17.04 194.796 17.06 194.636 17.1C194.476 17.1 194.296 17.12 194.096 17.16C193.896 17.2 193.596 17.24 193.196 17.28C192.836 17.32 192.696 17.34 192.776 17.34C190.816 17.34 189.836 16.44 189.836 14.64C189.836 12.92 190.976 12.06 193.256 12.06C193.456 12.06 193.696 12.08 193.976 12.12C194.296 12.12 194.616 12.14 194.936 12.18C195.256 12.22 195.556 12.26 195.836 12.3C196.156 12.3 196.416 12.3 196.616 12.3C196.736 12.3 196.956 12.3 197.276 12.3C197.596 12.26 197.916 12.2 198.236 12.12C198.396 12.08 198.556 12.06 198.716 12.06C198.876 12.02 199.076 12 199.316 12C201.156 12 202.076 12.98 202.076 14.94V16.14L202.016 19.92L201.836 24.12V27.72C201.836 29.36 201.896 30.74 202.016 31.86C202.176 32.98 202.356 33.88 202.556 34.56C203.316 36.6 205.096 37.62 207.896 37.62C209.296 37.62 210.536 37.3 211.616 36.66C212.736 36.02 213.516 35.16 213.956 34.08C214.516 32.72 214.796 30.02 214.796 25.98V19.14C214.676 17.86 214.496 17.22 214.256 17.22C214.096 17.22 213.816 17.26 213.416 17.34H212.576C210.616 17.34 209.636 16.48 209.636 14.76C209.636 12.92 210.696 12 212.816 12C213.016 12 213.256 12.02 213.536 12.06C213.816 12.06 214.116 12.08 214.436 12.12C214.756 12.16 215.056 12.2 215.336 12.24C215.616 12.24 215.816 12.24 215.936 12.24C216.056 12.24 216.216 12.24 216.416 12.24C216.656 12.24 216.916 12.22 217.196 12.18C217.436 12.14 217.676 12.12 217.916 12.12C218.196 12.08 218.436 12.06 218.636 12.06C220.436 12.06 221.336 12.92 221.336 14.64C221.336 15.2 221.296 15.68 221.216 16.08V16.02C221.136 16.74 221.056 17.62 220.976 18.66C220.936 19.7 220.916 20.9 220.916 22.26V31.02C220.916 33.26 220.936 34.48 220.976 34.68C221.176 36.32 221.376 37.14 221.576 37.14C221.656 37.14 221.796 37.14 221.996 37.14C222.196 37.1 222.416 37.06 222.656 37.02C222.856 36.98 223.116 36.94 223.436 36.9C223.796 36.86 223.936 36.84 223.856 36.84C225.816 36.84 226.796 37.72 226.796 39.48C226.796 41.32 225.676 42.24 223.436 42.24C223.276 42.24 223.076 42.24 222.836 42.24C222.636 42.24 222.436 42.22 222.236 42.18C222.156 42.18 222.076 42.16 221.996 42.12C221.916 42.12 221.856 42.12 221.816 42.12C220.856 42 220.316 41.94 220.196 41.94C220.156 41.94 220.096 41.96 220.016 42C219.976 42 219.916 42 219.836 42C219.596 42 219.376 42.02 219.176 42.06H219.236C218.756 42.18 218.276 42.24 217.796 42.24ZM254.585 42.72C251.625 42.72 249.625 41.72 248.585 39.72C246.465 41.88 243.525 42.96 239.765 42.96C236.365 42.96 233.665 42.14 231.665 40.5C229.665 38.82 228.665 36.6 228.665 33.84C228.665 32.16 229.065 30.68 229.865 29.4C230.705 28.08 231.825 27.02 233.225 26.22C234.305 25.62 235.245 25.22 236.045 25.02C236.805 24.82 238.345 24.58 240.665 24.3C243.705 23.98 245.645 23.56 246.485 23.04C247.165 22.56 247.505 21.66 247.505 20.34C247.505 19.06 247.045 18.04 246.125 17.28C245.245 16.52 243.985 16.14 242.345 16.14C240.785 16.14 239.365 16.58 238.085 17.46V17.4C237.805 17.68 237.665 17.84 237.665 17.88H237.725C238.565 18.6 238.985 19.46 238.985 20.46C238.985 21.46 238.605 22.28 237.845 22.92C237.125 23.56 236.205 23.88 235.085 23.88C233.805 23.88 232.745 23.48 231.905 22.68C231.065 21.84 230.645 20.8 230.645 19.56C230.645 17.16 231.825 15.14 234.185 13.5C236.425 11.86 239.165 11.04 242.405 11.04C249.965 11.04 253.745 14.62 253.745 21.78V33.24C253.745 34.04 253.745 34.72 253.745 35.28C253.785 35.8 253.825 36.16 253.865 36.36C254.065 37.24 254.385 37.68 254.825 37.68C255.505 37.68 255.845 36.74 255.845 34.86V32.04C255.845 30.32 256.745 29.46 258.545 29.46C260.465 29.46 261.425 30.62 261.425 32.94V33.24L261.365 36.48C261.285 40.64 259.025 42.72 254.585 42.72ZM247.385 28.38C247.145 28.46 246.905 28.56 246.665 28.68C246.465 28.76 246.225 28.84 245.945 28.92C244.865 29.28 243.165 29.56 240.845 29.76C237.085 30.12 235.205 31.46 235.205 33.78C235.205 34.94 235.625 35.88 236.465 36.6C237.345 37.28 238.545 37.62 240.065 37.62C242.345 37.62 244.105 37 245.345 35.76C246.625 34.52 247.285 32.82 247.325 30.66L247.385 28.38ZM271.052 12.06C272.372 12.06 273.152 12.58 273.392 13.62C275.352 11.9 277.692 11.04 280.412 11.04C281.892 11.04 283.232 11.26 284.432 11.7C285.632 12.1 286.672 12.7 287.552 13.5C288.432 14.26 289.112 15.18 289.592 16.26C290.072 17.34 290.312 18.54 290.312 19.86C290.312 21.78 289.812 23.34 288.812 24.54C287.812 25.7 286.472 26.28 284.792 26.28C283.632 26.28 282.652 25.94 281.852 25.26C281.092 24.58 280.712 23.74 280.712 22.74C280.712 21.94 281.032 21.22 281.672 20.58C282.352 19.94 283.112 19.62 283.952 19.62C284.032 19.62 284.012 19.6 283.892 19.56C283.812 19.52 283.872 19.54 284.072 19.62V19.32C284.072 18.44 283.672 17.7 282.872 17.1C282.112 16.5 281.152 16.2 279.992 16.2C277.472 16.2 275.792 17.36 274.952 19.68C274.392 21.28 274.112 23.64 274.112 26.76V30.54C274.112 31.7 274.112 32.62 274.112 33.3C274.112 33.98 274.132 34.4 274.172 34.56C274.372 36.32 274.632 37.2 274.952 37.2C275.192 37.2 275.412 37.2 275.612 37.2C275.812 37.16 276.012 37.12 276.212 37.08C276.732 36.92 277.192 36.84 277.592 36.84C279.432 36.84 280.352 37.7 280.352 39.42C280.352 41.3 279.252 42.24 277.052 42.24H276.872C276.552 42.24 276.152 42.22 275.672 42.18C275.232 42.14 274.712 42.08 274.112 42C272.952 41.88 272.132 41.82 271.652 41.82C270.892 41.82 270.232 41.84 269.672 41.88C269.112 41.88 268.612 41.9 268.172 41.94L264.932 42.24C262.732 42.24 261.632 41.3 261.632 39.42C261.632 37.74 262.672 36.9 264.752 36.9C264.952 36.9 265.112 36.9 265.232 36.9C265.392 36.86 265.572 36.88 265.772 36.96L266.492 37.14H266.972C267.012 37.18 267.072 37.2 267.152 37.2H267.212C267.572 37.2 267.772 36.6 267.812 35.4C267.812 34.92 267.832 34.44 267.872 33.96C267.912 33.48 267.932 33 267.932 32.52L267.752 19.62C267.672 18.14 267.472 17.3 267.152 17.1C267.072 17.1 266.872 17.12 266.552 17.16C266.232 17.2 266.012 17.22 265.892 17.22H266.012C265.532 17.34 265.032 17.4 264.512 17.4C262.632 17.4 261.692 16.52 261.692 14.76C261.692 12.92 262.812 12 265.052 12C265.132 12.04 265.372 12.08 265.772 12.12C266.172 12.12 266.532 12.14 266.852 12.18C267.172 12.22 267.472 12.26 267.752 12.3C268.072 12.3 268.312 12.3 268.472 12.3C268.552 12.3 268.652 12.3 268.772 12.3C268.932 12.3 269.112 12.28 269.312 12.24C269.392 12.24 269.452 12.24 269.492 12.24C269.572 12.2 269.672 12.18 269.792 12.18C270.192 12.1 270.612 12.06 271.052 12.06ZM309.198 29.7C309.278 27.62 310.298 26.58 312.258 26.58C314.218 26.58 315.198 27.72 315.198 30C315.198 32.16 315.038 34 314.718 35.52C314.398 37 313.958 38.2 313.398 39.12C311.798 41.52 309.178 42.72 305.538 42.72C303.858 42.72 302.398 42.44 301.158 41.88C299.958 41.32 298.998 40.52 298.278 39.48C297.198 37.84 296.658 35.3 296.658 31.86V18.24C296.658 17.96 296.618 17.82 296.538 17.82H294.738C293.858 17.82 293.118 17.56 292.518 17.04C291.958 16.48 291.678 15.8 291.678 15C291.678 14.28 291.958 13.64 292.518 13.08C293.118 12.48 293.798 12.18 294.558 12.18H296.778V6.06C296.778 4.06 297.838 3.06 299.958 3.06C301.958 3.06 302.958 4.06 302.958 6.06V12.12C302.958 12.16 302.978 12.18 303.018 12.18H309.198C311.278 12.18 312.318 13.1 312.318 14.94C312.318 16.86 311.238 17.82 309.078 17.82H302.778C302.898 17.9 302.958 18.04 302.958 18.24V32.22C302.958 35.66 303.938 37.38 305.898 37.38C308.018 37.38 309.078 36.04 309.078 33.36L309.198 29.7ZM345.341 24.48C345.341 25.4 345.321 26.12 345.281 26.64C345.241 27.16 345.121 27.56 344.921 27.84C344.721 28.12 344.421 28.3 344.021 28.38C343.661 28.42 343.141 28.44 342.461 28.44H324.401C324.241 28.44 324.161 28.46 324.161 28.5C324.161 31.18 324.941 33.36 326.501 35.04C327.981 36.76 329.841 37.62 332.081 37.62C333.561 37.62 334.901 37.22 336.101 36.42C337.301 35.62 338.081 34.6 338.441 33.36L338.981 31.74C339.221 31.14 339.561 30.66 340.001 30.3C340.481 29.94 341.061 29.76 341.741 29.76C343.821 29.76 344.861 30.76 344.861 32.76C344.861 35.48 343.461 37.88 340.661 39.96C337.981 41.96 334.961 42.96 331.601 42.96C327.281 42.96 323.861 41.54 321.341 38.7C318.861 35.86 317.621 32.1 317.621 27.42C317.621 22.7 318.941 18.78 321.581 15.66C324.261 12.58 327.761 11.04 332.081 11.04C334.081 11.04 335.861 11.36 337.421 12C338.981 12.64 340.381 13.58 341.621 14.82C344.101 17.42 345.341 20.64 345.341 24.48ZM338.801 23.04C338.801 21.24 338.141 19.68 336.821 18.36C335.421 17.04 333.861 16.38 332.141 16.38C330.381 16.38 328.661 17.1 326.981 18.54C325.461 19.94 324.701 21.44 324.701 23.04H338.801ZM357.361 12.06C358.681 12.06 359.461 12.58 359.701 13.62C361.661 11.9 364.001 11.04 366.721 11.04C368.201 11.04 369.541 11.26 370.741 11.7C371.941 12.1 372.981 12.7 373.861 13.5C374.741 14.26 375.421 15.18 375.901 16.26C376.381 17.34 376.621 18.54 376.621 19.86C376.621 21.78 376.121 23.34 375.121 24.54C374.121 25.7 372.781 26.28 371.101 26.28C369.941 26.28 368.961 25.94 368.161 25.26C367.401 24.58 367.021 23.74 367.021 22.74C367.021 21.94 367.341 21.22 367.981 20.58C368.661 19.94 369.421 19.62 370.261 19.62C370.341 19.62 370.321 19.6 370.201 19.56C370.121 19.52 370.181 19.54 370.381 19.62V19.32C370.381 18.44 369.981 17.7 369.181 17.1C368.421 16.5 367.461 16.2 366.301 16.2C363.781 16.2 362.101 17.36 361.261 19.68C360.701 21.28 360.421 23.64 360.421 26.76V30.54C360.421 31.7 360.421 32.62 360.421 33.3C360.421 33.98 360.441 34.4 360.481 34.56C360.681 36.32 360.941 37.2 361.261 37.2C361.501 37.2 361.721 37.2 361.921 37.2C362.121 37.16 362.321 37.12 362.521 37.08C363.041 36.92 363.501 36.84 363.901 36.84C365.741 36.84 366.661 37.7 366.661 39.42C366.661 41.3 365.561 42.24 363.361 42.24H363.181C362.861 42.24 362.461 42.22 361.981 42.18C361.541 42.14 361.021 42.08 360.421 42C359.261 41.88 358.441 41.82 357.961 41.82C357.201 41.82 356.541 41.84 355.981 41.88C355.421 41.88 354.921 41.9 354.481 41.94L351.241 42.24C349.041 42.24 347.941 41.3 347.941 39.42C347.941 37.74 348.981 36.9 351.061 36.9C351.261 36.9 351.421 36.9 351.541 36.9C351.701 36.86 351.881 36.88 352.081 36.96L352.801 37.14H353.281C353.321 37.18 353.381 37.2 353.461 37.2H353.521C353.881 37.2 354.081 36.6 354.121 35.4C354.121 34.92 354.141 34.44 354.181 33.96C354.221 33.48 354.241 33 354.241 32.52L354.061 19.62C353.981 18.14 353.781 17.3 353.461 17.1C353.381 17.1 353.181 17.12 352.861 17.16C352.541 17.2 352.321 17.22 352.201 17.22H352.321C351.841 17.34 351.341 17.4 350.821 17.4C348.941 17.4 348.001 16.52 348.001 14.76C348.001 12.92 349.121 12 351.361 12C351.441 12.04 351.681 12.08 352.081 12.12C352.481 12.12 352.841 12.14 353.161 12.18C353.481 12.22 353.781 12.26 354.061 12.3C354.381 12.3 354.621 12.3 354.781 12.3C354.861 12.3 354.961 12.3 355.081 12.3C355.241 12.3 355.421 12.28 355.621 12.24C355.701 12.24 355.761 12.24 355.801 12.24C355.881 12.2 355.981 12.18 356.101 12.18C356.501 12.1 356.921 12.06 357.361 12.06ZM391.693 11.04C393.893 11.04 395.753 11.48 397.273 12.36C397.633 11.24 398.513 10.68 399.913 10.68C401.793 10.68 402.733 11.56 402.733 13.32C402.733 13.4 402.713 13.48 402.673 13.56C402.673 13.64 402.673 13.78 402.673 13.98C402.673 14.14 402.653 14.34 402.613 14.58C402.613 14.78 402.613 14.98 402.613 15.18C402.533 15.54 402.473 15.9 402.433 16.26C402.393 16.62 402.373 16.96 402.373 17.28C402.373 17.8 402.433 18.42 402.553 19.14C402.633 19.58 402.693 19.98 402.733 20.34C402.773 20.66 402.793 20.96 402.793 21.24C402.793 23.24 401.853 24.24 399.973 24.24C398.133 24.24 397.173 23.38 397.093 21.66L397.033 19.74C396.993 18.82 396.433 18.04 395.353 17.4C394.313 16.72 393.053 16.38 391.573 16.38C390.133 16.38 388.913 16.74 387.913 17.46C386.913 18.18 386.413 19.1 386.413 20.22C386.413 21.18 386.793 21.96 387.553 22.56C388.313 23.12 389.313 23.52 390.553 23.76C391.113 23.84 391.653 23.92 392.173 24C392.733 24.08 393.293 24.16 393.853 24.24C400.893 25.2 404.413 28.12 404.413 33C404.413 35.92 403.233 38.36 400.873 40.32C398.553 42.08 395.633 42.96 392.113 42.96C389.473 42.96 387.073 42.36 384.913 41.16C384.713 42.68 383.753 43.44 382.033 43.44C379.993 43.44 378.973 42.4 378.973 40.32C379.053 39.72 379.113 39.24 379.153 38.88C379.233 38.52 379.293 38.2 379.333 37.92C379.373 37.64 379.393 37.36 379.393 37.08C379.433 36.76 379.453 36.32 379.453 35.76C379.453 35.32 379.413 34.86 379.333 34.38C379.293 33.86 379.233 33.38 379.153 32.94C379.033 32.42 378.973 31.88 378.973 31.32C378.973 29.48 379.913 28.56 381.793 28.56C383.073 28.56 383.853 28.9 384.133 29.58C384.413 30.18 384.573 31.28 384.613 32.88C384.653 34.28 385.393 35.42 386.833 36.3C388.313 37.18 390.233 37.62 392.593 37.62C394.153 37.62 395.433 37.24 396.433 36.48C397.473 35.68 397.993 34.66 397.993 33.42C397.993 31.3 396.233 30.06 392.713 29.7C390.633 29.46 388.793 29.16 387.193 28.8C385.593 28.4 384.253 27.88 383.173 27.24C382.093 26.56 381.273 25.7 380.713 24.66C380.153 23.62 379.873 22.32 379.873 20.76C379.873 19.32 380.153 18 380.713 16.8C381.313 15.6 382.133 14.58 383.173 13.74C384.213 12.9 385.453 12.24 386.893 11.76C388.333 11.28 389.933 11.04 391.693 11.04Z" fill="black"/>
</svg>
