<svg width="178" height="178" viewBox="0 0 178 178" fill="none" xmlns="http://www.w3.org/2000/svg">
<path d="M61.8629 145.11C61.4051 146.361 60.2082 147.117 58.2722 147.38L58.3477 147.749C58.4679 148.364 58.7165 149.36 59.0937 150.738L59.1939 151.04L59.401 150.789L60.7008 149.28C62.2525 147.484 63.7587 146.842 65.2196 147.354C65.8991 147.593 66.3761 147.982 66.6508 148.524C66.9295 149.054 66.9534 149.634 66.7224 150.265C66.5038 150.862 66.12 151.3 65.5711 151.578C65.0262 151.845 64.4593 151.875 63.8705 151.669C63.4401 151.518 63.1283 151.288 62.9348 150.978C62.7414 150.669 62.7086 150.34 62.8365 149.99C63.0345 149.449 63.3713 149.262 63.8469 149.429C64.2546 149.572 64.3904 149.829 64.2543 150.201C64.2378 150.246 64.1765 150.326 64.0704 150.442C64.2207 150.52 64.3071 150.563 64.3298 150.571C64.5449 150.646 64.7648 150.622 64.9893 150.497C65.2139 150.372 65.3736 150.18 65.4684 149.921C65.5881 149.594 65.5754 149.297 65.4303 149.03C65.3007 148.756 65.0547 148.555 64.6923 148.428C64.1035 148.222 63.5046 148.374 62.8958 148.886C62.4003 149.297 61.711 150.028 60.828 151.079C60.351 151.649 59.9445 152.079 59.6087 152.368C59.8977 153.08 60.1734 153.583 60.4358 153.879C60.6982 154.174 61.0785 154.409 61.5768 154.584C61.6787 154.619 61.8301 154.66 62.0309 154.705C62.243 154.754 62.4 154.796 62.5019 154.832C62.9662 154.994 63.122 155.284 62.9694 155.701C62.825 156.096 62.5151 156.209 62.0394 156.043C62.0281 156.039 61.9375 156.007 61.7676 155.947C61.6132 155.881 61.4567 155.819 61.2982 155.764L60.3979 155.448C59.6165 155.174 58.9512 154.426 58.402 153.204C57.9683 153.446 57.6171 153.603 57.3484 153.674C56.4689 153.912 55.5705 153.871 54.6532 153.549C53.6227 153.188 52.8924 152.582 52.4624 151.732C52.0325 150.882 51.9969 149.967 52.3558 148.987C52.8384 147.668 53.7624 146.854 55.128 146.545C55.5883 146.439 56.0059 146.363 56.3807 146.316L56.6217 146.286C56.4175 144.994 56.435 144.021 56.6742 143.368C56.9217 142.691 57.3539 142.226 57.9708 141.972C58.5991 141.722 59.2982 141.732 60.0683 142.002C60.8723 142.283 61.4343 142.703 61.7543 143.26C62.0742 143.817 62.1104 144.434 61.8629 145.11ZM58.0919 143.788C57.9351 144.216 57.9265 145.008 58.0659 146.163C59.3541 146.03 60.1467 145.557 60.4437 144.746C60.5757 144.385 60.5676 144.058 60.4195 143.765C60.2868 143.464 60.0336 143.248 59.6599 143.117C59.3089 142.994 58.9886 142.996 58.6992 143.124C58.4139 143.24 58.2115 143.461 58.0919 143.788ZM57.0682 148.941C56.949 148.429 56.8499 147.949 56.7709 147.502C56.2663 147.554 55.8348 147.651 55.4764 147.792C54.6597 148.103 54.1028 148.665 53.8058 149.476C53.5749 150.107 53.5854 150.689 53.8374 151.223C54.1048 151.749 54.5613 152.125 55.2068 152.351C56.1694 152.688 57.0874 152.571 57.9609 152C57.5569 150.765 57.2593 149.746 57.0682 148.941Z" fill="white"/>
<path d="M76.6022 151.294L75.8513 156.841C75.7792 157.449 75.8977 157.773 76.207 157.814C76.2784 157.824 76.4312 157.814 76.6655 157.784C76.8115 157.779 76.9083 157.78 76.9559 157.786C77.3485 157.839 77.5167 158.067 77.4607 158.471C77.4063 158.863 77.1353 159.027 76.6476 158.962C76.4572 158.937 76.1572 158.873 75.7474 158.77C75.3377 158.667 75.0198 158.601 74.7938 158.571C74.6034 158.545 74.3147 158.531 73.9274 158.528C73.5401 158.525 73.2573 158.512 73.0789 158.488L72.9897 158.477C72.49 158.41 72.2699 158.163 72.3292 157.735C72.3803 157.367 72.6081 157.209 73.0125 157.263C73.0363 157.266 73.0779 157.272 73.1374 157.28C73.2071 157.301 73.2599 157.314 73.2955 157.319C73.5863 157.406 73.7555 157.452 73.8031 157.459C74.0172 157.487 74.1604 157.415 74.2327 157.243C74.3186 157.061 74.421 156.584 74.54 155.813L74.7309 154.568L75.1675 151.811L75.5897 148.635C75.6272 148.277 75.6423 148.037 75.635 147.915C75.5897 147.631 75.4421 147.472 75.1923 147.439C75.1566 147.434 74.9986 147.437 74.7184 147.448C74.5843 147.455 74.4756 147.452 74.3923 147.441C73.9879 147.388 73.812 147.171 73.8647 146.79C73.9191 146.398 74.1842 146.233 74.66 146.297C74.7909 146.314 74.9031 146.335 74.9966 146.359L75.4174 146.47C75.6045 146.519 75.7634 146.552 75.8943 146.569C76.0132 146.585 76.1941 146.591 76.437 146.587C76.6815 146.571 76.8632 146.571 76.9822 146.587C77.2558 146.623 77.3687 146.814 77.3209 147.158C77.3044 147.277 77.2861 147.365 77.266 147.423C77.0558 148.328 76.8346 149.618 76.6022 151.294Z" fill="white"/>
<path d="M87.9728 159.123L87.986 158.565C87.3294 159.427 86.3773 159.843 85.1296 159.815C83.714 159.783 82.7406 159.323 82.2095 158.434C81.9786 158.045 81.8573 157.592 81.8455 157.076C81.8395 156.824 81.846 156.296 81.865 155.492L81.9004 153.998C81.9393 152.355 81.7848 151.529 81.4369 151.521C81.3649 151.52 81.2505 151.535 81.0937 151.567C80.9371 151.588 80.8169 151.597 80.7329 151.595C80.313 151.586 80.1077 151.383 80.1171 150.987C80.1262 150.603 80.3887 150.417 80.9046 150.429C81.0245 150.432 81.1982 150.448 81.4256 150.477C81.6649 150.506 81.8446 150.522 81.9646 150.525C82.0725 150.527 82.2589 150.514 82.5237 150.484C82.7042 150.464 82.8065 150.454 82.8305 150.454C83.2024 150.463 83.3829 150.695 83.3722 151.151L83.3632 151.529L83.3175 152.698L83.232 154.029L83.2043 155.198C83.1796 156.242 83.2459 156.994 83.403 157.453C83.6611 158.215 84.3119 158.608 85.3557 158.632C85.8715 158.644 86.3301 158.54 86.7314 158.321C87.133 158.09 87.4163 157.784 87.5814 157.404C87.7844 156.94 87.9014 156.055 87.9323 154.747L87.9558 153.757C87.9728 153.038 87.982 152.648 87.9834 152.588C87.9371 152.011 87.7879 151.719 87.536 151.713C87.404 151.71 87.2958 151.72 87.2112 151.742L86.9953 151.737C86.5754 151.728 86.3699 151.537 86.3787 151.165C86.3886 150.745 86.6275 150.541 87.0954 150.551C87.2034 150.554 87.365 150.569 87.5804 150.598C87.8078 150.627 87.9755 150.643 88.0834 150.646C88.1794 150.648 88.3235 150.645 88.5157 150.637C88.7083 150.618 88.8525 150.609 88.9485 150.611C89.3084 150.619 89.4838 150.815 89.4747 151.199C89.4707 151.367 89.4556 151.499 89.4294 151.594C89.3586 152.049 89.3127 152.72 89.2917 153.608L89.2261 156.379C89.2088 157.111 89.2051 157.519 89.2151 157.603C89.26 158.24 89.4205 158.562 89.6964 158.568C89.7804 158.57 89.9006 158.561 90.0572 158.54C90.214 158.508 90.3344 158.493 90.4183 158.494C90.8262 158.504 91.0255 158.706 91.0161 159.102C91.0065 159.51 90.7497 159.708 90.2458 159.697C90.1379 159.694 89.9822 159.679 89.7788 159.65C89.4797 159.608 89.2942 159.585 89.2222 159.584C89.1862 159.583 89.06 159.592 88.8435 159.611C88.6987 159.644 88.5723 159.659 88.4643 159.657C88.1284 159.649 87.9645 159.471 87.9728 159.123Z" fill="white"/>
<path d="M94.7622 150.859L94.8255 151.359C95.4256 150.367 96.3214 149.799 97.5126 149.655C98.1559 149.577 98.7846 149.67 99.3986 149.934C100.011 150.186 100.45 150.544 100.714 151.007C100.932 151.392 101.082 151.911 101.165 152.566L101.595 155.959C101.66 156.471 101.704 156.774 101.728 156.868C101.839 157.265 102.026 157.448 102.288 157.416C102.395 157.403 102.53 157.375 102.694 157.331C102.868 157.273 102.991 157.24 103.063 157.232C103.218 157.213 103.355 157.25 103.476 157.345C103.609 157.437 103.685 157.561 103.705 157.716C103.727 157.894 103.675 158.052 103.547 158.188C103.419 158.325 103.254 158.405 103.051 158.43C102.884 158.45 102.607 158.459 102.22 158.458C101.833 158.457 101.472 158.476 101.139 158.517C100.829 158.554 100.575 158.597 100.375 158.645C99.7885 158.789 99.4773 158.863 99.4416 158.867C98.9651 158.925 98.7004 158.746 98.6476 158.329C98.6009 157.96 98.78 157.751 99.1851 157.702C99.2804 157.69 99.3891 157.689 99.5112 157.699C99.7436 157.719 99.8896 157.725 99.9491 157.718C100.235 157.683 100.348 157.337 100.289 156.679L100.21 155.764L100.09 154.673L99.9177 153.316C99.8378 152.685 99.753 152.254 99.6632 152.023C99.4987 151.584 99.222 151.261 98.8329 151.054C98.4051 150.828 97.941 150.745 97.4407 150.806C96.4877 150.921 95.8457 151.344 95.5147 152.073C95.2876 152.572 95.2449 153.381 95.3867 154.5L95.6875 156.875C95.7538 157.399 95.8348 157.752 95.9304 157.933C96.026 158.115 96.1691 158.195 96.3597 158.171C96.455 158.16 96.583 158.12 96.7438 158.052C96.9045 157.984 97.0385 157.944 97.1457 157.931C97.515 157.886 97.7253 158.066 97.7766 158.471C97.8263 158.864 97.613 159.089 97.1365 159.147C97.0411 159.159 96.7269 159.16 96.1937 159.153C95.9271 159.149 95.633 159.166 95.3113 159.205C95.0612 159.236 94.7306 159.3 94.3197 159.398C93.8031 159.521 93.509 159.587 93.4376 159.596C92.9372 159.656 92.6614 159.484 92.6102 159.08C92.5619 158.699 92.7284 158.485 93.1096 158.439C93.1691 158.431 93.2786 158.436 93.438 158.453C93.6093 158.469 93.7724 158.467 93.9273 158.448C94.2846 158.405 94.4256 158.037 94.35 157.345L94.1347 155.359L93.861 153.198L93.7461 152.578C93.671 152.176 93.5827 151.908 93.4812 151.776C93.3902 151.629 93.2493 151.568 93.0587 151.591C92.9753 151.601 92.8525 151.634 92.6902 151.69C92.5384 151.733 92.4208 151.759 92.3374 151.769C91.9085 151.821 91.67 151.657 91.6217 151.276C91.572 150.883 91.8151 150.654 92.3512 150.589C92.4227 150.58 92.483 150.579 92.5321 150.585L93.2023 150.576C93.393 150.553 93.5582 150.521 93.6982 150.48C94.0049 150.419 94.1642 150.387 94.1761 150.386C94.5216 150.344 94.7169 150.502 94.7622 150.859Z" fill="white"/>
<path d="M110.564 150.511C110.438 150.048 110.655 149.706 111.217 149.485C111.048 149.095 110.764 148.828 110.364 148.685C109.976 148.538 109.521 148.533 108.998 148.67C108.197 148.879 107.64 149.365 107.326 150.13C107.012 150.894 106.998 151.803 107.286 152.856C107.583 153.944 108.043 154.742 108.666 155.249C109.298 155.741 110.02 155.881 110.833 155.669C111.344 155.535 111.745 155.275 112.038 154.889C112.342 154.499 112.494 154.032 112.495 153.486C112.5 153.05 112.507 152.801 112.514 152.737C112.579 152.472 112.733 152.307 112.977 152.244C113.174 152.192 113.354 152.213 113.517 152.307C113.679 152.401 113.787 152.547 113.841 152.744C113.92 153.033 113.922 153.405 113.846 153.858C113.771 154.312 113.642 154.705 113.459 155.038C112.973 155.947 112.185 156.543 111.093 156.828C109.909 157.138 108.837 156.971 107.879 156.329C106.931 155.683 106.273 154.683 105.904 153.329C105.512 151.893 105.571 150.65 106.08 149.599C106.598 148.534 107.478 147.839 108.72 147.514C109.649 147.272 110.491 147.325 111.245 147.673C111.996 148.01 112.478 148.567 112.689 149.343C112.806 149.771 112.78 150.156 112.612 150.497C112.456 150.836 112.192 151.054 111.821 151.151C111.53 151.226 111.263 151.203 111.018 151.081C110.785 150.956 110.634 150.766 110.564 150.511Z" fill="white"/>
<path d="M115.185 143.132L116.492 146.37C116.757 145.769 117.04 145.316 117.34 145.012C117.636 144.696 118.033 144.436 118.533 144.231C119.488 143.84 120.37 143.797 121.178 144.101C121.987 144.405 122.58 144.998 122.958 145.881L124.14 148.645C124.418 149.296 124.577 149.652 124.617 149.714C124.897 150.247 125.16 150.464 125.404 150.364C125.493 150.327 125.611 150.253 125.759 150.141C125.821 150.102 125.907 150.06 126.018 150.015C126.429 149.847 126.712 149.944 126.868 150.309C127.024 150.673 126.835 150.964 126.302 151.182C126.158 151.241 125.94 151.311 125.648 151.392C125.158 151.528 124.768 151.655 124.48 151.773C124.191 151.891 123.974 151.993 123.828 152.079C123.39 152.336 123.115 152.488 123.004 152.533C122.804 152.615 122.614 152.628 122.433 152.572C122.248 152.505 122.118 152.384 122.042 152.207C121.981 152.064 121.985 151.92 122.053 151.775C122.133 151.626 122.251 151.519 122.406 151.455C122.528 151.405 122.684 151.374 122.874 151.361C122.989 151.353 123.09 151.331 123.179 151.294C123.512 151.158 123.531 150.729 123.235 150.007C123.178 149.875 123.073 149.613 122.919 149.223L122.631 148.504L122.249 147.61C121.768 146.485 121.333 145.775 120.946 145.48C120.379 145.038 119.69 144.983 118.879 145.315C118.002 145.674 117.491 146.234 117.346 146.993C117.243 147.515 117.379 148.231 117.755 149.14L118.248 150.338C118.276 150.405 118.318 150.517 118.373 150.676C118.434 150.82 118.479 150.924 118.507 150.991C118.776 151.62 118.938 151.981 118.991 152.076C119.278 152.594 119.555 152.798 119.821 152.689C119.91 152.653 120.025 152.586 120.166 152.489C120.314 152.377 120.427 152.305 120.505 152.273C120.86 152.128 121.111 152.226 121.257 152.568C121.422 152.954 121.261 153.247 120.772 153.447C120.616 153.511 120.376 153.59 120.051 153.684C119.61 153.813 119.24 153.939 118.94 154.061C118.751 154.139 118.497 154.262 118.178 154.432C117.753 154.658 117.479 154.796 117.357 154.846C116.902 155.032 116.589 154.927 116.419 154.53C116.278 154.199 116.418 153.947 116.84 153.774C116.984 153.715 117.095 153.683 117.171 153.678C117.374 153.633 117.514 153.595 117.592 153.563C117.769 153.491 117.815 153.277 117.729 152.924C117.649 152.554 117.393 151.849 116.961 150.807L115.71 147.838C115.003 146.183 114.523 145.154 114.273 144.751C114.017 144.337 113.767 144.18 113.523 144.28C113.445 144.312 113.336 144.376 113.194 144.473C113.053 144.57 112.938 144.636 112.849 144.673C112.472 144.827 112.207 144.728 112.056 144.375C111.99 144.221 112 144.061 112.086 143.896C112.172 143.731 112.31 143.61 112.499 143.533C112.554 143.51 112.75 143.449 113.086 143.35C113.307 143.286 113.539 143.204 113.783 143.104C113.883 143.063 114.017 142.995 114.186 142.9C114.354 142.805 114.477 142.742 114.554 142.71C114.81 142.606 115.015 142.735 115.171 143.099L115.185 143.132Z" fill="white"/>
<path d="M51.0744 29.4636C51.6722 30.5316 51.4852 31.6224 50.5133 32.736C51.0306 32.6282 51.4778 32.5796 51.8551 32.5903C52.9811 32.612 53.8196 33.1149 54.3706 34.0992C54.9099 35.0626 54.9679 36.0384 54.5448 37.0267C54.1157 38.0045 53.2764 38.8391 52.0269 39.5303C51.5753 39.78 50.9884 40.0704 50.2661 40.4014C49.5437 40.7324 49.0198 40.988 48.6943 41.168C48.4108 41.3248 48.1518 41.4887 47.9174 41.6595L47.2298 42.1632C47.2088 42.1748 47.175 42.2004 47.1284 42.2399C47.0759 42.269 47.0391 42.2893 47.0181 42.3009C46.5607 42.5402 46.2295 42.4766 46.0243 42.1101C45.8367 41.775 45.9057 41.5175 46.2312 41.3374C46.3152 41.2909 46.4658 41.2282 46.6829 41.1493C46.8311 41.0947 46.9472 41.0442 47.0312 40.9977C47.5668 40.7015 47.6176 40.1659 47.1839 39.3911L43.6495 33.077C43.2099 32.2917 42.7223 32.0471 42.1868 32.3434C42.0923 32.3956 41.9879 32.4671 41.8736 32.5578C41.7021 32.6937 41.5692 32.7878 41.4747 32.8401C41.1492 33.0202 40.8926 32.9427 40.7051 32.6076C40.4999 32.2411 40.6388 31.9243 41.1219 31.6571L41.3266 31.5438L42.16 31.2268C42.3981 31.1363 42.7061 30.9864 43.0841 30.7773C43.4832 30.5566 44.0326 30.2115 44.7325 29.7421C45.2026 29.4272 45.7211 29.113 46.2881 28.7993C47.3487 28.2127 48.299 27.9818 49.1391 28.1068C49.9838 28.2155 50.6289 28.6678 51.0744 29.4636ZM45.4198 33.4759C45.7305 34.0309 45.9712 34.3503 46.1419 34.4341C46.3172 34.5017 46.6307 34.4106 47.0822 34.1608L47.9642 33.6729C49.8228 32.6448 50.4151 31.5287 49.741 30.3245C49.1256 29.2251 48.0513 29.0993 46.5182 29.9474C45.4472 30.5398 44.8237 30.9738 44.6479 31.2494C44.4826 31.5191 44.5582 31.9367 44.8747 32.5021L45.4198 33.4759ZM47.2047 36.6644L48.1806 38.4078C48.5616 39.0884 48.9115 39.4434 49.2305 39.4726C49.5494 39.5019 50.2234 39.232 51.2525 38.6627C53.2161 37.5765 53.7876 36.3005 52.967 34.8345C52.2108 33.4837 50.8877 33.3311 48.9976 34.3766L47.6903 35.0998C47.1233 35.4135 46.8681 35.7192 46.9248 36.017C46.9531 36.1658 47.0464 36.3816 47.2047 36.6644Z" fill="white"/>
<path d="M57.4531 27.6157L57.6282 28.0691C57.8957 27.0294 58.5171 26.3235 59.4925 25.9514C60.2774 25.6519 60.9973 25.6342 61.6522 25.898C62.3141 26.1464 62.7791 26.6176 63.047 27.3117C63.2372 27.8042 63.2695 28.2543 63.1438 28.6618C63.0139 29.0582 62.7471 29.3334 62.3435 29.4874C62.0856 29.5858 61.8367 29.5908 61.5968 29.5025C61.3569 29.4142 61.1937 29.2582 61.1073 29.0343C61.0382 28.8551 61.0449 28.6728 61.1276 28.4871C61.2059 28.2902 61.3348 28.1576 61.5142 28.0891C61.5478 28.0763 61.6272 28.0653 61.7523 28.0561C61.7677 27.8961 61.7538 27.7601 61.7105 27.6482C61.5852 27.3235 61.3336 27.1049 60.9556 26.9922C60.5889 26.8753 60.1925 26.898 59.7664 27.0606C58.8919 27.3943 58.4602 28.0085 58.4712 28.9033C58.4777 29.4531 58.669 30.215 59.045 31.1889L59.4729 32.2972C59.7625 33.0473 59.9302 33.4649 59.9759 33.5502C60.2784 34.1669 60.5753 34.4196 60.8668 34.3084C61.0126 34.2528 61.1553 34.1727 61.295 34.068C61.4053 33.9874 61.5054 33.9299 61.5951 33.8957C61.9538 33.7588 62.2024 33.8695 62.3407 34.2277C62.492 34.6195 62.3378 34.9031 61.8781 35.0785L61.8108 35.1042C61.6426 35.1684 61.3761 35.2443 61.0113 35.3322C60.6619 35.4269 60.4032 35.5064 60.235 35.5705C59.7866 35.7416 59.4377 35.8876 59.1885 36.0084L58.2791 36.4516C57.8194 36.627 57.514 36.5188 57.3627 36.127C57.2287 35.78 57.3747 35.5252 57.8008 35.3626C57.9129 35.3198 57.9991 35.2934 58.0595 35.2832L58.3312 35.2373C58.452 35.2169 58.5348 35.1982 58.5796 35.181C58.8599 35.0741 58.9119 34.7589 58.7355 34.2354L58.4385 33.3662L56.9163 29.5737C56.6277 28.926 56.332 28.6599 56.0293 28.7754C55.9396 28.8096 55.8228 28.8735 55.6788 28.967C55.5348 29.0604 55.4179 29.1243 55.3282 29.1585C54.9582 29.2997 54.7041 29.1911 54.5658 28.8329C54.4145 28.4411 54.5799 28.1532 55.062 27.9693C55.1741 27.9265 55.3488 27.8791 55.586 27.8272C55.8189 27.764 55.9914 27.711 56.1035 27.6682C56.1932 27.634 56.3346 27.5672 56.5278 27.4678C56.6088 27.4112 56.711 27.3594 56.8343 27.3123C57.1258 27.2011 57.3321 27.3022 57.4531 27.6157Z" fill="white"/>
<path d="M72.4919 26.4368C72.6017 26.8793 72.6405 27.1602 72.6083 27.2793C72.5731 27.3868 72.4157 27.4748 72.136 27.5434L66.5767 28.9066C66.4251 28.9438 66.3319 28.9914 66.2968 29.0494C66.2589 29.0957 66.2514 29.1655 66.2746 29.2587C66.4913 30.1322 66.9342 30.7958 67.6032 31.2496C68.2721 31.7033 68.997 31.8344 69.7779 31.6429C70.2907 31.5172 70.7222 31.2631 71.0724 30.8807C71.4343 30.4954 71.6259 30.0716 71.6471 29.6092L71.6787 29.064C71.691 28.7645 71.8486 28.5776 72.1516 28.5033C72.5828 28.3975 72.8534 28.5659 72.9632 29.0085C73.151 29.7656 72.9341 30.5354 72.3122 31.318C71.6875 32.089 70.8857 32.5945 69.9067 32.8345C68.6829 33.1346 67.6086 32.9656 66.6837 32.3275C65.7559 31.6778 65.1201 30.66 64.7761 29.274C64.4236 27.8531 64.522 26.6058 65.0716 25.532C65.6212 24.4582 66.5136 23.7698 67.749 23.4669C68.8446 23.1983 69.8389 23.3436 70.7319 23.903C71.6249 24.4625 72.2116 25.307 72.4919 26.4368ZM66.0332 27.5387C66.0737 27.7017 66.2221 27.7518 66.4785 27.689L70.6567 26.6644C70.9015 26.6044 71.0036 26.4928 70.9631 26.3298C70.81 25.7125 70.4439 25.2339 69.865 24.894C69.2861 24.5541 68.682 24.4613 68.0526 24.6156C67.4 24.7757 66.8648 25.1602 66.4472 25.7692C66.0267 26.3665 65.8887 26.9564 66.0332 27.5387Z" fill="white"/>
<path d="M83.6531 30.4953C82.6752 30.6045 82.0251 30.2483 81.7029 29.427C81.1957 30.3892 80.2921 30.9428 78.9921 31.0879C78.0261 31.1957 77.224 31.0437 76.5858 30.6319C75.9595 30.2188 75.6012 29.6128 75.511 28.8139C75.3992 27.8242 75.7405 27.0496 76.5347 26.4901C76.8365 26.2753 77.098 26.1314 77.3192 26.0584C77.551 25.9722 78.014 25.848 78.7082 25.6861C79.6979 25.4669 80.331 25.2454 80.6076 25.0213C80.8962 24.7959 81.0115 24.4269 80.9536 23.9141C80.8984 23.4252 80.6823 23.0629 80.3055 22.8273C79.9393 22.5784 79.452 22.4878 78.8438 22.5557C78.3071 22.6156 77.8231 22.8205 77.3916 23.1705C77.2262 23.3098 77.1509 23.4449 77.1657 23.5761C77.1711 23.6238 77.2315 23.6774 77.3469 23.737C77.5273 23.8376 77.6337 24.031 77.666 24.3172C77.693 24.5557 77.6257 24.7624 77.4644 24.9374C77.3149 25.111 77.109 25.2125 76.8466 25.2418C76.5365 25.2764 76.262 25.1983 76.0231 25.0076C75.7962 24.8156 75.6652 24.5646 75.6302 24.2546C75.5547 23.5868 75.8181 22.9779 76.4201 22.4277C77.0341 21.8762 77.8122 21.5479 78.7544 21.4428C80.9249 21.2006 82.128 22.1228 82.3636 24.2096L82.7716 27.8226C82.8362 28.395 82.8865 28.7335 82.9225 28.8381C83.0412 29.2475 83.2675 29.4335 83.6014 29.3963C84.0188 29.3497 84.1845 28.9448 84.0983 28.1817L83.9993 27.3053C83.9562 26.9237 84.1195 26.7123 84.4892 26.671C84.8828 26.6271 85.1119 26.8913 85.1765 27.4637L85.1866 27.5531L85.2839 28.5746C85.3893 29.722 84.8457 30.3622 83.6531 30.4953ZM81.2655 27.1575L81.14 25.8856C80.9045 26.1534 80.6431 26.3516 80.3557 26.4802C80.0803 26.6076 79.5709 26.7489 78.8277 26.9043C77.4829 27.1872 76.8597 27.7639 76.958 28.6343C77.0092 29.0875 77.2106 29.4272 77.5622 29.6536C77.9257 29.8787 78.3878 29.96 78.9483 29.8974C79.7473 29.8082 80.3492 29.5237 80.7539 29.0439C81.1692 28.5508 81.3397 27.922 81.2655 27.1575Z" fill="white"/>
<path d="M89.5079 25.5478L92.662 22.7527C92.7725 22.6596 92.8294 22.5532 92.8326 22.4332C92.8358 22.3132 92.7595 22.2511 92.6035 22.2469C92.4836 22.2436 92.309 22.2629 92.0798 22.3046C91.8506 22.3464 91.676 22.3657 91.556 22.3624C91.1362 22.351 90.9314 22.1533 90.9417 21.7695C90.953 21.3496 91.2225 21.1469 91.7503 21.1613C91.8823 21.1648 92.0499 21.1814 92.2532 21.211C93.0783 21.3295 93.7068 21.3946 94.1386 21.4064C94.3785 21.4129 94.5828 21.4065 94.7513 21.3871L95.492 21.2992C95.6605 21.2798 95.7988 21.2715 95.9068 21.2745C96.4946 21.2905 96.783 21.5024 96.772 21.9103C96.7617 22.2941 96.5527 22.4805 96.1448 22.4694C96.0489 22.4668 95.9112 22.451 95.7319 22.4221C95.5647 22.3936 95.433 22.378 95.3371 22.3754C95.0372 22.3672 94.7213 22.5086 94.3893 22.7997L92.4537 24.4756C92.3186 24.592 92.25 24.6862 92.2481 24.7581C92.2465 24.8181 92.292 24.9094 92.3848 25.032L94.6079 28.0816C95.1754 28.8534 95.5851 29.2427 95.837 29.2495C95.897 29.2512 95.9933 29.2418 96.1259 29.2214C96.2708 29.1893 96.3852 29.1744 96.4692 29.1767C96.901 29.1885 97.1118 29.3863 97.1015 29.7702C97.0906 30.178 96.8092 30.3744 96.2574 30.3594C96.0415 30.3535 95.7182 30.3207 95.2877 30.2609C94.8691 30.2015 94.5519 30.1689 94.336 30.163C94.144 30.1578 93.8615 30.1741 93.4884 30.2119C93.1272 30.2501 92.8567 30.2668 92.6767 30.2619C92.2209 30.2494 91.9984 30.0393 92.0094 29.6314C92.0197 29.2476 92.2407 29.0615 92.6726 29.0733C92.7925 29.0766 92.8883 29.0852 92.96 29.0991C93.1743 29.165 93.3114 29.1987 93.3714 29.2004C93.4794 29.2033 93.5345 29.1628 93.5367 29.0788C93.5371 29.0668 93.5375 29.0488 93.5382 29.0249C93.5265 29.0125 93.5208 29.0004 93.5212 28.9884L93.348 28.7316L93.1232 28.3833L91.3881 25.9412C91.2723 25.782 91.1784 25.7014 91.1064 25.6994C91.0585 25.6981 90.9669 25.7556 90.8317 25.872L89.4684 27.0233L89.4573 27.4371C89.4418 28.0129 89.4392 28.337 89.4492 28.4093C89.4979 28.8308 89.6602 29.0453 89.9361 29.0528C90.0561 29.056 90.1582 29.0528 90.2425 29.0431C90.3271 29.0214 90.4414 29.0125 90.5854 29.0164C90.9932 29.0276 91.1918 29.231 91.1812 29.6269C91.1706 30.0228 90.9374 30.2145 90.4815 30.2021C90.2776 30.1965 89.9664 30.164 89.5478 30.1046C89.1416 30.0335 88.8305 29.995 88.6146 29.9891C88.3387 29.9816 88.0202 29.997 87.659 30.0351C87.2016 30.0827 86.8949 30.1044 86.7389 30.1001C86.2711 30.0874 86.0425 29.8831 86.0531 29.4872C86.0637 29.0914 86.2969 28.8996 86.7528 28.912C86.8487 28.9147 86.9624 28.9298 87.0937 28.9573C87.2846 28.9986 87.4161 29.0202 87.4881 29.0221C87.776 29.03 87.944 28.8064 87.9922 28.3516L88.065 27.6513L88.2599 20.3819C88.2533 19.7335 88.2223 19.3245 88.1668 19.1549C88.1116 18.9734 87.9881 18.88 87.7962 18.8747C87.7362 18.8731 87.6219 18.882 87.4533 18.9014C87.2838 18.9568 87.115 18.9822 86.9471 18.9777C86.5513 18.9669 86.3583 18.7756 86.3683 18.4037C86.3792 17.9958 86.6186 17.7983 87.0864 17.811C87.3263 17.8176 87.4941 17.8281 87.5898 17.8427C87.8887 17.8869 88.0861 17.9103 88.1821 17.9129C88.2781 17.9155 88.4163 17.9073 88.5969 17.8882C88.7898 17.8574 88.9282 17.8432 89.0122 17.8455L89.1382 17.8489C89.522 17.8594 89.7073 18.1105 89.6942 18.6023L89.5079 25.5478Z" fill="white"/>
<path d="M104.677 20.746C104.701 20.5796 104.781 20.4393 104.918 20.3251C104.743 20.1069 104.459 19.9706 104.067 19.9162C103.556 19.8453 103.128 19.9556 102.784 20.2471C102.454 20.5283 102.248 20.9601 102.166 21.5424L102.121 21.8633C102.1 22.0178 102.166 22.1057 102.321 22.1272L103.711 22.3201C104.103 22.3745 104.27 22.6156 104.209 23.0434C104.149 23.4712 103.923 23.6579 103.531 23.6035L102.212 23.4205C102.01 23.3924 101.894 23.4854 101.863 23.6993L101.163 28.6903C101.101 29.13 101.071 29.3863 101.073 29.4593C101.087 29.7884 101.213 29.9694 101.451 30.0024C101.511 30.0106 101.663 30.0015 101.909 29.9751C102.079 29.9744 102.2 29.979 102.271 29.9889C102.675 30.045 102.85 30.2691 102.795 30.6613C102.736 31.0772 102.463 31.2513 101.976 31.1837C101.774 31.1557 101.468 31.089 101.059 30.9838C100.661 30.8802 100.362 30.8144 100.16 30.7863C99.803 30.7368 99.4795 30.7101 99.1893 30.7062C98.7174 30.7013 98.416 30.6898 98.2853 30.6717C97.7742 30.6007 97.5478 30.3573 97.6062 29.9414C97.6279 29.7869 97.7065 29.6585 97.8421 29.5562C97.9895 29.4555 98.1464 29.4167 98.3128 29.4398C98.4317 29.4562 98.5591 29.4982 98.6951 29.5655C98.8446 29.6226 98.9788 29.6594 99.0976 29.6758C99.3235 29.7072 99.4861 29.5844 99.5856 29.3074C99.6851 29.0305 99.8175 28.3462 99.9829 27.2545L100.526 23.5137C100.556 23.2998 100.464 23.178 100.25 23.1483L99.359 23.0247C98.943 22.9669 98.7658 22.7182 98.8276 22.2786C98.8859 21.8626 99.1291 21.6844 99.557 21.7437L100.573 21.8847C100.728 21.9062 100.816 21.8396 100.838 21.6852L100.883 21.3643C101.014 20.4255 101.365 19.7412 101.934 19.3114C102.504 18.8815 103.246 18.7301 104.161 18.8571C104.91 18.961 105.488 19.1987 105.897 19.5704C106.307 19.9301 106.476 20.3655 106.404 20.8765C106.367 21.1379 106.254 21.3403 106.064 21.4836C105.876 21.615 105.657 21.6633 105.408 21.6287C105.17 21.5957 104.978 21.4964 104.832 21.3307C104.699 21.1548 104.647 20.9599 104.677 20.746Z" fill="white"/>
<path d="M111.192 33.3586C110.237 33.1242 109.751 32.5664 109.735 31.6852C108.923 32.413 107.883 32.6211 106.612 32.3096C105.668 32.0781 104.968 31.6594 104.513 31.0535C104.069 30.4504 103.944 29.7587 104.138 28.9784C104.378 28.0117 104.968 27.4027 105.908 27.1514C106.266 27.0539 106.561 27.009 106.794 27.0167C107.042 27.0156 107.52 27.0586 108.227 27.1457C109.232 27.2809 109.904 27.2911 110.241 27.1762C110.591 27.0642 110.827 26.7577 110.952 26.2569C111.07 25.7794 110.994 25.3653 110.722 25.0145C110.465 24.655 110.04 24.4023 109.445 24.2566C108.921 24.128 108.395 24.1535 107.868 24.3332C107.665 24.4068 107.547 24.5077 107.515 24.6358C107.503 24.6824 107.541 24.7535 107.629 24.8491C107.763 25.0056 107.796 25.2236 107.726 25.5031C107.669 25.736 107.533 25.9068 107.321 26.0153C107.12 26.1267 106.892 26.151 106.635 26.0881C106.332 26.0138 106.102 25.8461 105.944 25.585C105.798 25.3268 105.763 25.0462 105.838 24.7434C106 24.0912 106.459 23.6108 107.215 23.3021C107.984 22.9962 108.828 22.9562 109.749 23.182C111.87 23.7021 112.678 24.9813 112.172 27.0195L111.296 30.5485C111.158 31.1075 111.087 31.4423 111.084 31.5528C111.053 31.9776 111.2 32.23 111.527 32.31C111.935 32.4101 112.231 32.0874 112.416 31.342L112.629 30.486C112.721 30.1133 112.948 29.9712 113.309 30.0598C113.694 30.1541 113.817 30.4808 113.678 31.0398L113.656 31.1272L113.392 32.1187C113.091 33.2311 112.358 33.6444 111.192 33.3586ZM110.115 29.4062L110.44 28.1701C110.126 28.3401 109.811 28.436 109.497 28.4578C109.194 28.4823 108.667 28.4395 107.915 28.3294C106.555 28.1317 105.769 28.4579 105.558 29.3082C105.448 29.7507 105.519 30.1387 105.77 30.4721C106.033 30.8084 106.438 31.0437 106.986 31.178C107.767 31.3695 108.431 31.3099 108.977 30.9992C109.539 30.6797 109.918 30.1487 110.115 29.4062Z" fill="white"/>
<path d="M121.165 26.7138C121.916 27.0004 122.469 27.4358 122.822 28.0201L122.848 27.953C123.008 27.5388 123.267 27.4001 123.626 27.537C123.996 27.6782 124.112 27.9279 123.973 28.2861C123.947 28.3532 123.871 28.5169 123.745 28.777C123.614 28.9838 123.505 29.1991 123.419 29.423C123.367 29.5574 123.308 29.7597 123.242 30.03C123.188 30.3046 123.134 30.509 123.082 30.6434C122.918 31.0688 122.651 31.2109 122.281 31.0697C121.922 30.9328 121.807 30.6831 121.934 30.3206L122.131 29.7601C122.249 29.42 122.163 29.0596 121.873 28.6791C121.598 28.2917 121.208 28.0017 120.704 27.8092C120.188 27.6124 119.704 27.5821 119.253 27.7182C118.806 27.843 118.507 28.1014 118.356 28.4932C118.079 29.2096 118.408 29.8232 119.343 30.334L120.267 30.8405C122.073 31.8252 122.721 32.978 122.211 34.2989C121.9 35.105 121.339 35.6422 120.528 35.9107C119.721 36.168 118.819 36.1063 117.821 35.7256C116.89 35.3705 116.185 34.7995 115.704 34.0124C115.672 34.1286 115.636 34.2371 115.597 34.3378C115.442 34.7409 115.173 34.8696 114.792 34.7242C114.377 34.5659 114.259 34.2573 114.436 33.7983C114.406 33.8767 114.552 33.5985 114.874 32.9636C114.957 32.8155 115.029 32.663 115.089 32.5063C115.193 32.2376 115.268 31.9772 115.314 31.725C115.359 31.4728 115.408 31.2795 115.46 31.1452C115.611 30.7534 115.867 30.6259 116.225 30.7628C116.461 30.8526 116.585 30.9642 116.598 31.0976C116.622 31.2352 116.546 31.5468 116.372 32.0324C116.197 32.5181 116.298 33.0061 116.675 33.4966C117.051 33.9871 117.621 34.3778 118.383 34.6686C118.933 34.8782 119.441 34.9116 119.908 34.7686C120.374 34.6256 120.69 34.3414 120.854 33.916C121.148 33.1548 120.713 32.4816 119.55 31.8965C118.443 31.3327 117.649 30.7731 117.169 30.2174C116.693 29.6506 116.615 28.953 116.935 28.1246C117.238 27.341 117.779 26.8218 118.559 26.5672C119.344 26.3013 120.212 26.3502 121.165 26.7138Z" fill="white"/>
<path d="M128.09 37.375L128.651 36.368C128.887 35.9363 129.193 35.816 129.567 36.007C129.941 36.198 130.001 36.5387 129.748 37.0291C129.147 38.1911 128.579 38.925 128.043 39.2306C127.317 39.6415 126.489 39.6096 125.56 39.1349C124.705 38.6983 124.236 38.1154 124.153 37.3861C124.09 36.8553 124.304 36.1154 124.794 35.1666L126.777 31.3287C126.893 31.1048 126.849 30.941 126.646 30.8373L126.133 30.5754C125.962 30.4881 125.845 30.3611 125.783 30.1945C125.736 30.0226 125.755 29.8567 125.837 29.6968C125.914 29.5476 126.037 29.4416 126.204 29.3789C126.382 29.3217 126.541 29.3285 126.68 29.3995L127.305 29.7187C127.487 29.8115 127.63 29.7566 127.734 29.554L128.586 27.9069C128.795 27.5018 129.108 27.4057 129.525 27.6185C129.91 27.815 129.997 28.1157 129.788 28.5209L128.904 30.2319C128.821 30.3918 128.876 30.5209 129.068 30.6191L130.816 31.5114C131.222 31.7188 131.329 32.009 131.136 32.3821C130.932 32.7766 130.611 32.8619 130.173 32.6382L128.409 31.7378C128.26 31.6614 128.127 31.7351 128.011 31.959L125.979 35.8928C125.4 37.0122 125.48 37.7602 126.217 38.1367C126.965 38.5187 127.589 38.2648 128.09 37.375Z" fill="white"/>
<path d="M78.2261 55.0578C78.2261 54.4165 78.0051 54.0958 77.5631 54.0958C77.4417 54.0958 77.3507 54.1045 77.2901 54.1218C77.1514 54.1478 77.0344 54.1608 76.9391 54.1608C76.8264 54.1608 76.7311 54.1218 76.6531 54.0438C76.5751 53.9572 76.5361 53.8532 76.5361 53.7318C76.5361 53.4285 76.7181 53.2768 77.0821 53.2768C77.0907 53.2768 77.1557 53.2812 77.2771 53.2898C78.5771 53.3765 79.1837 53.4198 79.0971 53.4198C79.1837 53.4198 79.2271 53.4198 79.2271 53.4198L82.3601 53.3288C82.4207 53.3288 82.6461 53.3158 83.0361 53.2898C83.1747 53.2812 83.3004 53.2768 83.4131 53.2768C83.8637 53.2768 84.0891 53.4762 84.0891 53.8748C84.0891 53.9442 84.0717 54.1652 84.0371 54.5378C84.0111 54.8152 83.9981 55.0708 83.9981 55.3048C83.9981 55.6082 84.0067 55.8205 84.0241 55.9418C84.0587 56.1932 84.0761 56.3795 84.0761 56.5008C84.0761 56.8302 83.9201 56.9948 83.6081 56.9948C83.2961 56.9948 83.1401 56.7652 83.1401 56.3058V55.6298C83.1401 54.9018 82.9884 54.4728 82.6851 54.3428C82.4597 54.2475 81.8791 54.1998 80.9431 54.1998C80.3277 54.1998 79.9637 54.2128 79.8511 54.2388C79.4784 54.3342 79.2921 54.5942 79.2921 55.0188V55.6038C79.2921 55.6732 79.2921 55.7685 79.2921 55.8898C79.2834 56.0112 79.2791 56.0978 79.2791 56.1498V56.3188C79.2791 56.6655 79.3571 56.8648 79.5131 56.9168C79.5737 56.9342 79.6777 56.9428 79.8251 56.9428H80.3581C80.9041 56.9428 81.1771 56.7565 81.1771 56.3838C81.1771 56.2798 81.1641 56.1455 81.1381 55.9808C81.1121 55.8162 81.0991 55.6688 81.0991 55.5388C81.0991 55.1922 81.2551 55.0188 81.5671 55.0188C81.8791 55.0188 82.0351 55.2052 82.0351 55.5778C82.0351 55.6472 82.0047 55.9158 81.9441 56.3838C81.8921 56.7825 81.8661 57.1335 81.8661 57.4368C81.8661 57.6102 81.8834 57.9178 81.9181 58.3598C81.9267 58.4292 81.9484 58.5808 81.9831 58.8148C82.0091 59.0055 82.0221 59.1572 82.0221 59.2698C82.0221 59.5818 81.8661 59.7378 81.5541 59.7378C81.2507 59.7378 81.0991 59.5558 81.0991 59.1918C81.0991 59.0965 81.1077 58.9578 81.1251 58.7758C81.1511 58.5938 81.1641 58.4552 81.1641 58.3598C81.1641 57.9872 80.9171 57.8008 80.4231 57.8008H79.8381C79.5867 57.8008 79.4307 57.8442 79.3701 57.9308C79.3181 58.0175 79.2921 58.2038 79.2921 58.4898V59.2958C79.2921 59.4345 79.2964 59.6208 79.3051 59.8548C79.3137 60.1408 79.3181 60.3315 79.3181 60.4268C79.3267 60.7735 79.3961 60.9902 79.5261 61.0768C79.6214 61.1375 79.8467 61.1678 80.2021 61.1678H81.9701C82.4814 61.1678 82.8324 61.0942 83.0231 60.9468C83.2137 60.7908 83.3091 60.5048 83.3091 60.0888C83.3091 59.9588 83.3004 59.7682 83.2831 59.5168C83.2744 59.2568 83.2701 59.0618 83.2701 58.9318C83.2701 58.5418 83.4261 58.3468 83.7381 58.3468C84.0674 58.3468 84.2321 58.5462 84.2321 58.9448C84.2321 59.1008 84.2234 59.3392 84.2061 59.6598C84.1887 59.9805 84.1801 60.2188 84.1801 60.3748C84.1801 60.4962 84.1844 60.6782 84.1931 60.9208C84.2104 61.1548 84.2191 61.3325 84.2191 61.4538C84.2191 61.8612 84.0197 62.0648 83.6211 62.0648C83.5257 62.0648 83.3741 62.0562 83.1661 62.0388C83.0621 62.0302 82.8714 62.0258 82.5941 62.0258C82.6547 62.0258 82.3167 62.0172 81.5801 61.9998C80.8434 61.9825 80.2064 61.9738 79.6691 61.9738C78.8544 61.9738 78.0571 61.9998 77.2771 62.0518C77.2424 62.0518 77.2034 62.0562 77.1601 62.0648C77.1167 62.0648 77.0907 62.0648 77.0821 62.0648C76.7181 62.0648 76.5361 61.9088 76.5361 61.5968C76.5361 61.3195 76.6704 61.1808 76.9391 61.1808C76.9824 61.1808 77.0994 61.1895 77.2901 61.2068C77.3854 61.2328 77.4764 61.2458 77.5631 61.2458C78.0051 61.2458 78.2261 60.9208 78.2261 60.2708V55.0578ZM89.0271 53.0428C89.8765 53.0428 90.5698 53.3158 91.1071 53.8618V53.6798C91.1071 53.3418 91.2415 53.1728 91.5101 53.1728C91.8048 53.1728 91.9521 53.3592 91.9521 53.7318V53.8098C91.9521 53.8272 91.9391 53.9572 91.9131 54.1998C91.8871 54.4425 91.8741 54.7328 91.8741 55.0708C91.8741 55.1142 91.8828 55.2528 91.9001 55.4868L91.9391 56.0068C91.9478 56.0502 91.9521 56.1108 91.9521 56.1888C91.9521 56.6048 91.7918 56.8128 91.4711 56.8128C91.1331 56.8128 90.9641 56.6395 90.9641 56.2928C90.9641 56.2495 90.9641 56.2278 90.9641 56.2278L90.9901 55.8768C90.9988 55.7555 91.0031 55.6602 91.0031 55.5908C91.0031 55.0708 90.8255 54.6635 90.4701 54.3688C90.1235 54.0742 89.6425 53.9268 89.0271 53.9268C88.4638 53.9268 88.0131 54.0655 87.6751 54.3428C87.3458 54.6202 87.1811 54.9928 87.1811 55.4608C87.1811 56.0068 87.4281 56.4098 87.9221 56.6698C88.1995 56.8085 88.6848 56.9342 89.3781 57.0468C90.4095 57.2115 91.1158 57.4368 91.4971 57.7228C92.0691 58.1475 92.3551 58.7498 92.3551 59.5298C92.3551 60.3445 92.0605 61.0075 91.4711 61.5188C90.8905 62.0302 90.1365 62.2858 89.2091 62.2858C88.2211 62.2858 87.4021 61.9738 86.7521 61.3498C86.7521 61.3845 86.7565 61.4235 86.7651 61.4668C86.7651 61.5102 86.7651 61.5362 86.7651 61.5448C86.7825 61.6835 86.7911 61.7745 86.7911 61.8178C86.7911 62.1385 86.6395 62.2988 86.3361 62.2988C86.0068 62.2988 85.8421 62.1168 85.8421 61.7528C85.8421 61.7095 85.8465 61.6748 85.8551 61.6488L85.9071 60.9728C85.9331 60.6348 85.9461 60.4182 85.9461 60.3228C85.9461 60.1495 85.9245 59.8895 85.8811 59.5428C85.8378 59.1962 85.8161 58.9362 85.8161 58.7628C85.8161 58.3728 85.9808 58.1778 86.3101 58.1778C86.6481 58.1778 86.8171 58.3728 86.8171 58.7628V58.9968C86.8085 59.0662 86.8041 59.1658 86.8041 59.2958C86.8041 59.9458 87.0121 60.4615 87.4281 60.8428C87.8441 61.2242 88.4075 61.4148 89.1181 61.4148C89.7768 61.4148 90.3011 61.2588 90.6911 60.9468C91.0811 60.6348 91.2761 60.2102 91.2761 59.6728C91.2761 58.8495 90.7561 58.3468 89.7161 58.1648L88.9751 58.0348C88.2385 57.9048 87.6665 57.7532 87.2591 57.5798C86.8865 57.4152 86.5875 57.1595 86.3621 56.8128C86.1455 56.4575 86.0371 56.0588 86.0371 55.6168C86.0371 54.8542 86.3145 54.2345 86.8691 53.7578C87.4238 53.2812 88.1431 53.0428 89.0271 53.0428ZM97.4848 60.2838C97.4848 60.9338 97.7058 61.2588 98.1478 61.2588C98.2171 61.2588 98.3211 61.2502 98.4598 61.2328C98.5984 61.2068 98.7024 61.1938 98.7718 61.1938C98.8844 61.1938 98.9798 61.2372 99.0578 61.3238C99.1444 61.4018 99.1878 61.4972 99.1878 61.6098C99.1878 61.9132 98.9928 62.0648 98.6028 62.0648C98.5854 62.0648 98.5594 62.0648 98.5248 62.0648C98.4814 62.0562 98.4511 62.0518 98.4338 62.0518L97.7968 61.9608C97.5541 61.9262 97.2811 61.9088 96.9778 61.9088C96.6484 61.9088 96.3581 61.9262 96.1068 61.9608L95.4568 62.0518C95.4308 62.0518 95.4004 62.0562 95.3658 62.0648C95.3224 62.0648 95.2921 62.0648 95.2748 62.0648C94.8934 62.0648 94.7028 61.9132 94.7028 61.6098C94.7028 61.3325 94.8414 61.1938 95.1188 61.1938C95.1881 61.1938 95.2921 61.2068 95.4308 61.2328C95.5694 61.2502 95.6734 61.2588 95.7428 61.2588C96.1761 61.2588 96.3928 60.9338 96.3928 60.2838V59.3738L96.4058 58.2298V57.1248L96.3928 55.0058C96.3928 54.3905 96.0764 54.0828 95.4438 54.0828H95.0408C94.4168 54.0828 94.1048 54.3862 94.1048 54.9928C94.1048 55.2095 94.1091 55.3568 94.1178 55.4348L94.1698 55.9158C94.1784 55.9938 94.1828 56.1022 94.1828 56.2408C94.1828 56.7868 94.0138 57.0598 93.6758 57.0598C93.3551 57.0598 93.1948 56.8605 93.1948 56.4618C93.1948 56.3492 93.2034 56.1542 93.2208 55.8768C93.2468 55.4608 93.2598 55.1965 93.2598 55.0838C93.2598 54.8672 93.2511 54.6418 93.2338 54.4078C93.1991 53.9485 93.1818 53.7535 93.1818 53.8228C93.1818 53.4588 93.3464 53.2768 93.6758 53.2768C93.7971 53.2768 94.0788 53.2898 94.5208 53.3158C94.5641 53.3158 94.9194 53.3245 95.5868 53.3418L97.0688 53.3678C97.2421 53.3678 97.7058 53.3592 98.4598 53.3418C98.6244 53.3418 98.9061 53.3288 99.3048 53.3028C99.6601 53.2768 99.9374 53.2638 100.137 53.2638C100.57 53.2638 100.787 53.4415 100.787 53.7968V53.8228C100.787 53.9095 100.774 54.0698 100.748 54.3038C100.73 54.5378 100.709 54.7892 100.683 55.0578V55.2008C100.683 55.3308 100.696 55.5345 100.722 55.8118C100.756 56.1758 100.774 56.4012 100.774 56.4878C100.774 56.8432 100.605 57.0208 100.267 57.0208C99.9374 57.0208 99.7728 56.8042 99.7728 56.3708C99.7728 56.2148 99.7858 55.9852 99.8118 55.6818C99.8378 55.3698 99.8508 55.1358 99.8508 54.9798C99.8508 54.3818 99.5084 54.0828 98.8238 54.0828H98.4598C98.1391 54.0828 97.9094 54.1522 97.7708 54.2908C97.6321 54.4208 97.5541 54.6418 97.5368 54.9538L97.4978 55.8638L97.4848 60.2838ZM101.924 62.2208C101.699 62.2208 101.508 62.1428 101.352 61.9868C101.196 61.8222 101.118 61.6272 101.118 61.4018C101.118 61.1765 101.196 60.9858 101.352 60.8298C101.508 60.6652 101.699 60.5828 101.924 60.5828C102.15 60.5828 102.34 60.6652 102.496 60.8298C102.652 60.9858 102.73 61.1765 102.73 61.4018C102.73 61.6272 102.652 61.8222 102.496 61.9868C102.34 62.1428 102.15 62.2208 101.924 62.2208Z" fill="white"/>
<path d="M77.3426 119.634C77.1519 119.859 77.0349 120.132 76.9916 120.453C77.3816 120.037 77.8539 119.829 78.4086 119.829C78.9199 119.829 79.4572 120.054 80.0206 120.505C80.6446 120.999 81.1256 121.246 81.4636 121.246C81.7062 121.246 81.9012 121.168 82.0486 121.012C82.2046 120.847 82.2826 120.639 82.2826 120.388C82.2826 120.301 82.2652 120.206 82.2306 120.102C82.0919 120.24 81.9359 120.31 81.7626 120.31C81.3899 120.31 81.2036 120.128 81.2036 119.764C81.2036 119.564 81.2772 119.4 81.4246 119.27C81.5719 119.14 81.7669 119.075 82.0096 119.075C82.3302 119.075 82.5859 119.192 82.7766 119.426C82.9759 119.651 83.0756 119.954 83.0756 120.336C83.0756 120.873 82.9066 121.332 82.5686 121.714C82.2306 122.095 81.8189 122.286 81.3336 122.286C80.8742 122.286 80.3196 122.039 79.6696 121.545C79.0282 121.051 78.4649 120.804 77.9796 120.804C77.4942 120.804 77.1909 120.986 77.0696 121.35C77.1562 121.332 77.2082 121.324 77.2256 121.324C77.4769 121.324 77.6026 121.449 77.6026 121.701C77.6026 122.091 77.3859 122.286 76.9526 122.286C76.6666 122.286 76.4326 122.164 76.2506 121.922C76.0772 121.67 75.9906 121.337 75.9906 120.921C75.9906 119.404 77.0349 118.312 79.1236 117.645L80.0596 117.346C81.1082 117.008 81.6326 116.44 81.6326 115.643C81.6326 115.105 81.4419 114.681 81.0606 114.369C80.6879 114.057 80.1722 113.901 79.5136 113.901C78.9329 113.901 78.4519 114.018 78.0706 114.252C77.6892 114.486 77.4639 114.806 77.3946 115.214C77.8626 115.248 78.0966 115.452 78.0966 115.825C78.0966 116.05 78.0142 116.245 77.8496 116.41C77.6849 116.566 77.4812 116.644 77.2386 116.644C76.9439 116.644 76.7056 116.544 76.5236 116.345C76.3502 116.137 76.2636 115.868 76.2636 115.539C76.2636 114.828 76.5842 114.234 77.2256 113.758C77.8669 113.281 78.6599 113.043 79.6046 113.043C80.5232 113.043 81.2729 113.285 81.8536 113.771C82.4429 114.247 82.7376 114.867 82.7376 115.63C82.7376 116.15 82.5946 116.609 82.3086 117.008C82.0312 117.406 81.6412 117.705 81.1386 117.905C80.9826 117.965 80.4626 118.147 79.5786 118.451C78.9459 118.667 78.4389 118.875 78.0576 119.075C77.7802 119.222 77.5419 119.408 77.3426 119.634ZM87.7519 122.286C86.6513 122.286 85.7846 121.883 85.1519 121.077C84.5279 120.262 84.2159 119.144 84.2159 117.723C84.2159 116.275 84.5409 115.136 85.1909 114.304C85.8496 113.463 86.7466 113.043 87.8819 113.043C88.9653 113.043 89.8189 113.446 90.4429 114.252C91.0756 115.049 91.3919 116.132 91.3919 117.502C91.3919 118.984 91.0669 120.154 90.4169 121.012C89.7669 121.861 88.8786 122.286 87.7519 122.286ZM87.8559 114.005C86.2613 114.005 85.4336 115.196 85.3729 117.58C85.3729 117.58 85.3729 117.645 85.3729 117.775C85.3729 118.91 85.5809 119.79 85.9969 120.414C86.4129 121.029 87.0023 121.337 87.7649 121.337C88.5449 121.337 89.1559 120.999 89.5979 120.323C90.0399 119.647 90.2609 118.715 90.2609 117.528C90.2609 116.392 90.0529 115.521 89.6369 114.915C89.2209 114.308 88.6273 114.005 87.8559 114.005ZM94.4329 118.997L94.3939 115.227C94.3852 114.785 94.3376 114.49 94.2509 114.343C94.1729 114.195 94.0126 114.122 93.7699 114.122C93.6832 114.122 93.5576 114.135 93.3929 114.161C93.2282 114.178 93.1026 114.187 93.0159 114.187C92.6779 114.187 92.5089 114.035 92.5089 113.732C92.5089 113.428 92.6692 113.277 92.9899 113.277C93.0939 113.277 93.2542 113.29 93.4709 113.316C93.6962 113.333 93.8696 113.342 93.9909 113.342C94.2682 113.342 94.4979 113.333 94.6799 113.316C94.9486 113.29 95.1132 113.277 95.1739 113.277C95.3646 113.277 95.4816 113.333 95.5249 113.446C95.5596 113.524 95.5769 113.658 95.5769 113.849C95.5769 113.875 95.5726 113.979 95.5639 114.161C95.5206 115.088 95.4989 115.929 95.4989 116.683V118.152C95.4989 118.42 95.5032 118.78 95.5119 119.231C95.5292 119.777 95.5379 120.136 95.5379 120.31C95.5466 120.908 95.7459 121.207 96.1359 121.207C96.2312 121.207 96.3742 121.198 96.5649 121.181C96.7556 121.155 96.8986 121.142 96.9939 121.142C97.4099 121.142 97.6179 121.293 97.6179 121.597C97.6179 121.9 97.4272 122.052 97.0459 122.052C96.8986 122.052 96.7599 122.043 96.6299 122.026C95.9019 121.93 95.3472 121.883 94.9659 121.883C94.5846 121.883 94.1166 121.922 93.5619 122C93.2499 122.043 93.0289 122.065 92.8989 122.065C92.5262 122.065 92.3399 121.909 92.3399 121.597C92.3399 121.293 92.5522 121.142 92.9769 121.142C93.1069 121.142 93.2412 121.155 93.3799 121.181C93.5879 121.198 93.7179 121.207 93.7699 121.207C94.0732 121.207 94.2596 121.09 94.3289 120.856C94.3982 120.613 94.4329 119.993 94.4329 118.997ZM99.1371 113.823L99.1111 113.966C99.3277 113.619 99.5227 113.385 99.6961 113.264C99.8694 113.142 100.103 113.082 100.398 113.082C100.823 113.082 101.321 113.303 101.893 113.745C102.534 114.239 103.028 114.486 103.375 114.486C103.739 114.486 103.964 114.364 104.051 114.122H103.947C103.826 114.122 103.713 114.07 103.609 113.966C103.514 113.862 103.466 113.745 103.466 113.615C103.466 113.45 103.527 113.311 103.648 113.199C103.778 113.077 103.93 113.017 104.103 113.017C104.675 113.017 104.961 113.402 104.961 114.174C104.961 114.746 104.818 115.248 104.532 115.682C104.35 115.95 104.155 116.184 103.947 116.384C103.852 116.479 103.661 116.652 103.375 116.904C102.786 117.415 102.383 117.887 102.166 118.321C101.854 118.936 101.698 119.681 101.698 120.557C101.698 120.539 101.702 120.635 101.711 120.843C101.728 121.259 101.737 121.445 101.737 121.402C101.737 121.948 101.52 122.221 101.087 122.221C100.636 122.221 100.411 121.865 100.411 121.155C100.411 120.037 100.619 119.062 101.035 118.23C101.373 117.554 102.092 116.765 103.193 115.864C103.644 115.491 103.899 115.183 103.96 114.941C103.665 115.192 103.293 115.318 102.842 115.318C102.287 115.318 101.746 115.118 101.217 114.72L100.684 114.317C100.493 114.178 100.281 114.109 100.047 114.109C99.4924 114.109 99.2151 114.464 99.2151 115.175C99.2151 115.391 99.2324 115.586 99.2671 115.76C99.3277 116.063 99.3581 116.288 99.3581 116.436C99.3581 116.583 99.3061 116.709 99.2021 116.813C99.1067 116.917 98.9854 116.969 98.8381 116.969C98.4914 116.969 98.3181 116.782 98.3181 116.41C98.3181 116.262 98.3397 116.037 98.3831 115.734C98.4351 115.43 98.4611 115.196 98.4611 115.032C98.4611 114.789 98.4437 114.529 98.4091 114.252C98.3744 113.974 98.3571 113.732 98.3571 113.524C98.3571 113.168 98.5087 112.991 98.8121 112.991C99.0634 112.991 99.1891 113.142 99.1891 113.446C99.1891 113.506 99.1717 113.632 99.1371 113.823Z" fill="white"/>
<path d="M19.4686 87.7798V88.9398L19.4886 89.6198C19.4886 89.8331 19.5086 89.9998 19.5486 90.1198C19.6153 90.3465 19.7953 90.4598 20.0886 90.4598C20.2353 90.4598 20.4486 90.4398 20.7286 90.3998C21.0086 90.3465 21.2219 90.3198 21.3686 90.3198C22.1553 90.3198 22.5486 90.7732 22.5486 91.6798C22.5486 92.1065 22.4086 92.4532 22.1286 92.7198C21.8619 92.9732 21.5019 93.0998 21.0486 93.0998C20.7019 93.0998 20.1819 93.0665 19.4886 92.9998C18.8086 92.9332 18.2953 92.8998 17.9486 92.8998C17.2686 92.8998 16.7286 92.9198 16.3286 92.9598C15.4086 93.0532 14.8953 93.0998 14.7886 93.0998C14.3619 93.0998 14.0153 92.9665 13.7486 92.6998C13.4953 92.4332 13.3686 92.0798 13.3686 91.6398C13.3686 91.2532 13.4686 90.9398 13.6686 90.6998C13.8819 90.4465 14.1486 90.3198 14.4686 90.3198C14.5753 90.3198 14.7353 90.3465 14.9486 90.3998C15.1619 90.4398 15.3153 90.4598 15.4086 90.4598C15.6753 90.4598 15.8419 90.2865 15.9086 89.9398C15.9353 89.8065 15.9486 89.5265 15.9486 89.0998V83.5598C15.9486 83.1331 15.9353 82.8598 15.9086 82.7398C15.8419 82.3931 15.6753 82.2198 15.4086 82.2198C15.3019 82.2198 15.1419 82.2465 14.9286 82.2998C14.7286 82.3398 14.5686 82.3598 14.4486 82.3598C14.1419 82.3598 13.8819 82.2332 13.6686 81.9798C13.4686 81.7265 13.3686 81.4131 13.3686 81.0398C13.3686 80.0665 13.8619 79.5798 14.8486 79.5798C15.1553 79.5798 15.6486 79.6065 16.3286 79.6598C17.3553 79.7398 18.1953 79.7798 18.8486 79.7798C19.3019 79.7798 19.8086 79.7731 20.3686 79.7598C20.7419 79.7465 21.4886 79.7331 22.6086 79.7198C23.0619 79.7198 23.6153 79.7065 24.2686 79.6798L25.4686 79.5798C25.6286 79.5665 25.6953 79.5598 25.6686 79.5598C26.3353 79.5598 26.6686 79.8531 26.6686 80.4398C26.6686 80.6798 26.6419 80.9465 26.5886 81.2398C26.5086 81.6798 26.4686 82.0398 26.4686 82.3198C26.4686 82.5331 26.5019 82.8465 26.5686 83.2598C26.6486 83.6731 26.6886 83.9865 26.6886 84.1998C26.6886 84.6665 26.5486 85.0465 26.2686 85.3398C25.9886 85.6331 25.6219 85.7798 25.1686 85.7798C24.7153 85.7798 24.3553 85.6331 24.0886 85.3398C23.8353 85.0465 23.7086 84.6531 23.7086 84.1598C23.7086 84.0131 23.7353 83.7598 23.7886 83.3998C23.8286 83.1332 23.8486 82.9265 23.8486 82.7798C23.8486 82.3265 23.5153 82.0998 22.8486 82.0998H20.6686C20.1486 82.0998 19.8153 82.1665 19.6686 82.2998C19.5353 82.4198 19.4686 82.7598 19.4686 83.3198V84.2598C19.4686 84.6731 19.6486 84.8798 20.0086 84.8798C20.5686 84.8798 20.8486 84.6865 20.8486 84.2998C20.8486 84.2598 20.8353 84.1331 20.8086 83.9198C20.8086 83.8798 20.8086 83.8265 20.8086 83.7598C20.7953 83.6932 20.7886 83.6465 20.7886 83.6198C20.7886 83.0998 21.1019 82.8398 21.7286 82.8398C22.4619 82.8398 22.8286 83.1865 22.8286 83.8798C22.8286 84.0131 22.8153 84.2265 22.7886 84.5198C22.7619 84.8131 22.7486 85.1932 22.7486 85.6598C22.7486 85.9265 22.7753 86.3332 22.8286 86.8798C22.8819 87.4132 22.9086 87.8132 22.9086 88.0798C22.9086 88.8932 22.5619 89.2998 21.8686 89.2998C21.1619 89.2998 20.8086 88.9265 20.8086 88.1798C20.8086 88.1531 20.8153 88.1131 20.8286 88.0598C20.8286 88.0198 20.8286 87.9865 20.8286 87.9598V87.7398C20.8286 87.4065 20.5753 87.2398 20.0686 87.2398C19.8153 87.2398 19.6486 87.2731 19.5686 87.3398C19.5019 87.4065 19.4686 87.5531 19.4686 87.7798ZM33.7278 93.3398C32.0745 93.3398 30.7945 92.8732 29.8878 91.9398C28.9945 91.0065 28.5478 89.6932 28.5478 87.9998C28.5478 86.3198 28.9945 85.0131 29.8878 84.0798C30.7811 83.1331 32.0345 82.6598 33.6478 82.6598C35.2345 82.6598 36.4811 83.1265 37.3878 84.0598C38.3078 84.9931 38.7678 86.2732 38.7678 87.8998C38.7678 89.6065 38.3211 90.9398 37.4278 91.8998C36.5478 92.8598 35.3145 93.3398 33.7278 93.3398ZM33.6478 85.1198C33.0611 85.1198 32.5945 85.3798 32.2478 85.8998C31.9145 86.4065 31.7478 87.1065 31.7478 87.9998C31.7478 88.9065 31.9145 89.6132 32.2478 90.1198C32.5945 90.6265 33.0745 90.8798 33.6878 90.8798C34.9278 90.8798 35.5478 89.9198 35.5478 87.9998C35.5478 86.0798 34.9145 85.1198 33.6478 85.1198ZM48.3769 92.4398V91.6598C47.4969 92.7798 46.3302 93.3398 44.8769 93.3398C44.2635 93.3398 43.7035 93.2065 43.1969 92.9398C42.6902 92.6732 42.3235 92.3198 42.0969 91.8798C41.8835 91.4265 41.7769 90.5998 41.7769 89.3998V86.2998C41.7769 85.8332 41.7435 85.5598 41.6769 85.4798C41.6235 85.3998 41.5302 85.3598 41.3969 85.3598H41.1969C41.1569 85.3731 41.0902 85.3798 40.9969 85.3798C40.3969 85.3798 40.0969 85.0131 40.0969 84.2798C40.0969 83.3865 40.5035 82.9398 41.3169 82.9398C41.4769 82.9398 41.7235 82.9665 42.0569 83.0198C42.3902 83.0731 42.6369 83.0998 42.7969 83.0998C42.9569 83.0998 43.1969 83.0731 43.5169 83.0198C43.8369 82.9665 44.0769 82.9398 44.2369 82.9398C44.6369 82.9398 44.8369 83.2198 44.8369 83.7798L44.8769 89.0998C44.9169 90.1398 45.3302 90.6598 46.1169 90.6598C47.3169 90.6598 47.9169 89.8265 47.9169 88.1598V86.2998C47.9169 85.6198 47.7635 85.2798 47.4569 85.2798C47.3769 85.2798 47.2702 85.2998 47.1369 85.3398C47.0169 85.3665 46.9169 85.3798 46.8369 85.3798C46.3435 85.3798 46.0969 85.0265 46.0969 84.3198C46.0969 83.3998 46.4702 82.9398 47.2169 82.9398C47.4035 82.9398 47.6769 82.9665 48.0369 83.0198C48.3969 83.0731 48.6635 83.0998 48.8369 83.0998C48.8902 83.0998 49.1769 83.0665 49.6969 82.9998C50.0035 82.9598 50.2235 82.9398 50.3569 82.9398C50.7835 82.9398 50.9969 83.1798 50.9969 83.6598V89.7398C50.9969 90.4065 51.1235 90.7398 51.3769 90.7398C51.4835 90.7398 51.5769 90.7265 51.6569 90.6998C51.7369 90.6732 51.8502 90.6598 51.9969 90.6598C52.5702 90.6598 52.8569 91.0065 52.8569 91.6998C52.8569 92.6198 52.4635 93.0798 51.6769 93.0798C51.5169 93.0798 51.2769 93.0532 50.9569 92.9998C50.6502 92.9465 50.4169 92.9198 50.2569 92.9198C50.1102 92.9198 49.8902 92.9465 49.5969 92.9998C49.3169 93.0532 49.1035 93.0798 48.9569 93.0798C48.5702 93.0798 48.3769 92.8665 48.3769 92.4398ZM58.3112 83.5598V85.2598C58.4979 84.5798 58.7179 84.0798 58.9712 83.7598C59.5579 83.0265 60.3779 82.6598 61.4312 82.6598C62.1646 82.6598 62.7779 82.8998 63.2712 83.3798C63.7779 83.8465 64.0312 84.4265 64.0312 85.1198C64.0312 85.6665 63.8712 86.1198 63.5512 86.4798C63.2312 86.8265 62.8246 86.9998 62.3312 86.9998C61.9579 86.9998 61.6379 86.8798 61.3712 86.6398C61.1179 86.3998 60.9912 86.1065 60.9912 85.7598C60.9912 85.5731 61.0779 85.3131 61.2512 84.9798H61.1312C60.2379 84.9798 59.6379 85.4531 59.3312 86.3998C59.0912 87.1598 58.9712 88.0332 58.9712 89.0198V89.7798C58.9712 90.2598 59.0112 90.5665 59.0912 90.6998C59.1446 90.7798 59.2379 90.8198 59.3712 90.8198C59.4912 90.8198 59.6579 90.7932 59.8712 90.7398C60.0846 90.6865 60.2446 90.6598 60.3512 90.6598C60.6446 90.6598 60.8912 90.7665 61.0912 90.9798C61.3046 91.1798 61.4112 91.4265 61.4112 91.7198C61.4112 92.1065 61.2779 92.4332 61.0112 92.6998C60.7579 92.9532 60.4446 93.0798 60.0712 93.0798C59.8712 93.0798 59.4979 93.0465 58.9512 92.9798C58.6179 92.9398 58.1979 92.9198 57.6912 92.9198C57.1846 92.9198 56.7379 92.9398 56.3512 92.9798C55.7112 93.0465 55.3179 93.0798 55.1712 93.0798C54.3446 93.0798 53.9312 92.6332 53.9312 91.7398C53.9312 90.9932 54.2512 90.6198 54.8912 90.6198C54.9979 90.6198 55.1179 90.6465 55.2512 90.6998C55.3846 90.7398 55.4846 90.7598 55.5512 90.7598C55.7779 90.7598 55.8912 90.3865 55.8912 89.6398V86.3998C55.8912 85.6398 55.7779 85.2598 55.5512 85.2598C55.4979 85.2598 55.3912 85.2865 55.2312 85.3398C55.0846 85.3798 54.9712 85.3998 54.8912 85.3998C54.2512 85.3998 53.9312 85.0331 53.9312 84.2998C53.9312 83.8998 54.0379 83.5731 54.2512 83.3198C54.4646 83.0665 54.7379 82.9398 55.0712 82.9398C55.2046 82.9398 55.3912 82.9665 55.6312 83.0198C55.8712 83.0731 56.0979 83.0998 56.3112 83.0998C56.4712 83.0998 56.7046 83.0731 57.0112 83.0198C57.3179 82.9665 57.5446 82.9398 57.6912 82.9398C58.1046 82.9398 58.3112 83.1465 58.3112 83.5598ZM82.3266 91.0198C81.8732 91.6465 81.2199 92.1932 80.3666 92.6598C80.5266 93.3265 80.7332 93.6598 80.9866 93.6598C81.1332 93.6598 81.2332 93.6265 81.2866 93.5598C81.3399 93.5065 81.4266 93.3265 81.5466 93.0198C81.7066 92.6065 82.0266 92.3998 82.5066 92.3998C82.8799 92.3998 83.1799 92.5332 83.4066 92.7998C83.6332 93.0532 83.7466 93.3932 83.7466 93.8198C83.7466 94.5532 83.4732 95.1332 82.9266 95.5598C82.3799 95.9998 81.6466 96.2198 80.7266 96.2198C79.5666 96.2198 78.7266 95.9265 78.2066 95.3398C77.9532 95.0598 77.7399 94.5132 77.5666 93.6998C77.5532 93.6332 77.5266 93.5132 77.4866 93.3398H77.2666C75.3466 93.3398 73.8732 92.7998 72.8466 91.7198C71.6332 90.4398 71.0266 88.6398 71.0266 86.3198C71.0266 84.1465 71.5799 82.4331 72.6866 81.1798C73.7932 79.9265 75.3066 79.2998 77.2266 79.2998C79.2399 79.2998 80.8132 79.9198 81.9466 81.1598C83.0799 82.3865 83.6466 84.0998 83.6466 86.2998C83.6466 88.2332 83.2066 89.8065 82.3266 91.0198ZM77.2666 87.4998C78.3599 87.4998 79.0132 88.2065 79.2266 89.6198C79.5199 89.1398 79.7132 88.6265 79.8066 88.0798C79.8732 87.7198 79.9066 87.1665 79.9066 86.4198C79.9066 84.9131 79.6999 83.8198 79.2866 83.1398C78.8866 82.4465 78.2399 82.0998 77.3466 82.0998C76.4532 82.0998 75.7932 82.4465 75.3666 83.1398C74.9532 83.8198 74.7466 84.8998 74.7466 86.3798C74.7466 87.7265 74.8932 88.7132 75.1866 89.3398C75.4799 89.9665 75.9799 90.3465 76.6866 90.4798C76.6466 90.2265 76.5132 89.9865 76.2866 89.7598C75.9399 89.4132 75.7666 89.0798 75.7666 88.7598C75.7666 88.3998 75.9066 88.0998 76.1866 87.8598C76.4799 87.6198 76.8399 87.4998 77.2666 87.4998ZM93.3542 92.4398V91.6598C92.4742 92.7798 91.3076 93.3398 89.8542 93.3398C89.2409 93.3398 88.6809 93.2065 88.1742 92.9398C87.6676 92.6732 87.3009 92.3198 87.0742 91.8798C86.8609 91.4265 86.7542 90.5998 86.7542 89.3998V86.2998C86.7542 85.8332 86.7209 85.5598 86.6542 85.4798C86.6009 85.3998 86.5076 85.3598 86.3742 85.3598H86.1742C86.1342 85.3731 86.0676 85.3798 85.9742 85.3798C85.3742 85.3798 85.0742 85.0131 85.0742 84.2798C85.0742 83.3865 85.4809 82.9398 86.2942 82.9398C86.4542 82.9398 86.7009 82.9665 87.0342 83.0198C87.3676 83.0731 87.6142 83.0998 87.7742 83.0998C87.9342 83.0998 88.1742 83.0731 88.4942 83.0198C88.8142 82.9665 89.0542 82.9398 89.2142 82.9398C89.6142 82.9398 89.8142 83.2198 89.8142 83.7798L89.8542 89.0998C89.8942 90.1398 90.3076 90.6598 91.0942 90.6598C92.2942 90.6598 92.8942 89.8265 92.8942 88.1598V86.2998C92.8942 85.6198 92.7409 85.2798 92.4342 85.2798C92.3542 85.2798 92.2476 85.2998 92.1142 85.3398C91.9942 85.3665 91.8942 85.3798 91.8142 85.3798C91.3209 85.3798 91.0742 85.0265 91.0742 84.3198C91.0742 83.3998 91.4476 82.9398 92.1942 82.9398C92.3809 82.9398 92.6542 82.9665 93.0142 83.0198C93.3742 83.0731 93.6409 83.0998 93.8142 83.0998C93.8676 83.0998 94.1542 83.0665 94.6742 82.9998C94.9809 82.9598 95.2009 82.9398 95.3342 82.9398C95.7609 82.9398 95.9742 83.1798 95.9742 83.6598V89.7398C95.9742 90.4065 96.1009 90.7398 96.3542 90.7398C96.4609 90.7398 96.5542 90.7265 96.6342 90.6998C96.7142 90.6732 96.8276 90.6598 96.9742 90.6598C97.5476 90.6598 97.8342 91.0065 97.8342 91.6998C97.8342 92.6198 97.4409 93.0798 96.6542 93.0798C96.4942 93.0798 96.2542 93.0532 95.9342 92.9998C95.6276 92.9465 95.3942 92.9198 95.2342 92.9198C95.0876 92.9198 94.8676 92.9465 94.5742 92.9998C94.2942 93.0532 94.0809 93.0798 93.9342 93.0798C93.5476 93.0798 93.3542 92.8665 93.3542 92.4398ZM108.149 93.3398C107.055 93.3398 106.322 92.8998 105.949 92.0198C105.015 92.8998 103.909 93.3398 102.629 93.3398C101.575 93.3398 100.735 93.0665 100.109 92.5198C99.4819 91.9598 99.1686 91.2198 99.1686 90.2998C99.1686 88.8998 99.7753 87.9931 100.989 87.5798C101.509 87.4065 102.109 87.2598 102.789 87.1398C103.735 86.9798 104.375 86.7998 104.709 86.5998C105.055 86.3865 105.229 86.0665 105.229 85.6398C105.229 85.3331 105.095 85.0798 104.829 84.8798C104.575 84.6665 104.255 84.5598 103.869 84.5598C103.429 84.5598 103.209 84.6998 103.209 84.9798C103.209 85.0731 103.215 85.1665 103.229 85.2598V85.3398C103.229 85.7131 103.069 86.0265 102.749 86.2798C102.442 86.5332 102.055 86.6598 101.589 86.6598C101.055 86.6598 100.615 86.4998 100.269 86.1798C99.9219 85.8598 99.7486 85.4598 99.7486 84.9798C99.7486 84.2598 100.129 83.6931 100.889 83.2798C101.649 82.8665 102.695 82.6598 104.029 82.6598C105.469 82.6598 106.542 82.8798 107.249 83.3198C108.009 83.7998 108.389 84.6931 108.389 85.9998V90.1398C108.389 90.5665 108.495 90.7798 108.709 90.7798C108.815 90.7798 108.915 90.7732 109.009 90.7598C109.049 90.7465 109.095 90.7398 109.149 90.7398C109.455 90.7398 109.715 90.8465 109.929 91.0598C110.142 91.2732 110.249 91.5332 110.249 91.8398C110.249 92.2798 110.049 92.6398 109.649 92.9198C109.262 93.1998 108.762 93.3398 108.149 93.3398ZM105.249 89.0598V88.6198C105.155 88.6732 104.569 88.8398 103.489 89.1198C102.755 89.3065 102.389 89.5932 102.389 89.9798C102.389 90.5932 102.749 90.8998 103.469 90.8998C104.655 90.8998 105.249 90.2865 105.249 89.0598ZM115.749 83.5598V85.2598C115.935 84.5798 116.155 84.0798 116.409 83.7598C116.995 83.0265 117.815 82.6598 118.869 82.6598C119.602 82.6598 120.215 82.8998 120.709 83.3798C121.215 83.8465 121.469 84.4265 121.469 85.1198C121.469 85.6665 121.309 86.1198 120.989 86.4798C120.669 86.8265 120.262 86.9998 119.769 86.9998C119.395 86.9998 119.075 86.8798 118.809 86.6398C118.555 86.3998 118.429 86.1065 118.429 85.7598C118.429 85.5731 118.515 85.3131 118.689 84.9798H118.569C117.675 84.9798 117.075 85.4531 116.769 86.3998C116.529 87.1598 116.409 88.0332 116.409 89.0198V89.7798C116.409 90.2598 116.449 90.5665 116.529 90.6998C116.582 90.7798 116.675 90.8198 116.809 90.8198C116.929 90.8198 117.095 90.7932 117.309 90.7398C117.522 90.6865 117.682 90.6598 117.789 90.6598C118.082 90.6598 118.329 90.7665 118.529 90.9798C118.742 91.1798 118.849 91.4265 118.849 91.7198C118.849 92.1065 118.715 92.4332 118.449 92.6998C118.195 92.9532 117.882 93.0798 117.509 93.0798C117.309 93.0798 116.935 93.0465 116.389 92.9798C116.055 92.9398 115.635 92.9198 115.129 92.9198C114.622 92.9198 114.175 92.9398 113.789 92.9798C113.149 93.0465 112.755 93.0798 112.609 93.0798C111.782 93.0798 111.369 92.6332 111.369 91.7398C111.369 90.9932 111.689 90.6198 112.329 90.6198C112.435 90.6198 112.555 90.6465 112.689 90.6998C112.822 90.7398 112.922 90.7598 112.989 90.7598C113.215 90.7598 113.329 90.3865 113.329 89.6398V86.3998C113.329 85.6398 113.215 85.2598 112.989 85.2598C112.935 85.2598 112.829 85.2865 112.669 85.3398C112.522 85.3798 112.409 85.3998 112.329 85.3998C111.689 85.3998 111.369 85.0331 111.369 84.2998C111.369 83.8998 111.475 83.5731 111.689 83.3198C111.902 83.0665 112.175 82.9398 112.509 82.9398C112.642 82.9398 112.829 82.9665 113.069 83.0198C113.309 83.0731 113.535 83.0998 113.749 83.0998C113.909 83.0998 114.142 83.0731 114.449 83.0198C114.755 82.9665 114.982 82.9398 115.129 82.9398C115.542 82.9398 115.749 83.1465 115.749 83.5598ZM127.352 85.6798V86.4998L127.332 87.7398L127.292 89.0798C127.279 89.5198 127.272 89.6998 127.272 89.6198C127.272 90.4065 127.526 90.7998 128.032 90.7998C128.512 90.7998 128.752 90.4465 128.752 89.7398C128.752 89.6332 128.746 89.5532 128.732 89.4998C128.732 89.4332 128.732 89.3465 128.732 89.2398C128.719 89.1465 128.712 89.0798 128.712 89.0398C128.712 88.3198 129.072 87.9598 129.792 87.9598C130.632 87.9598 131.052 88.6332 131.052 89.9798C131.052 91.0332 130.739 91.8598 130.112 92.4598C129.486 93.0465 128.612 93.3398 127.492 93.3398C125.292 93.3398 124.192 92.1798 124.192 89.8598C124.192 89.4865 124.206 88.9265 124.232 88.1798C124.272 87.4331 124.292 86.8731 124.292 86.4998V85.8598C124.292 85.5265 124.259 85.3198 124.192 85.2398C124.139 85.1465 123.999 85.0998 123.772 85.0998H123.452C123.199 85.0998 122.992 85.0065 122.832 84.8198C122.672 84.6198 122.592 84.3665 122.592 84.0598C122.592 83.7531 122.672 83.4931 122.832 83.2798C123.006 83.0531 123.206 82.9398 123.432 82.9398H123.812C124.132 82.9398 124.319 82.8465 124.372 82.6598C124.412 82.5531 124.432 82.3731 124.432 82.1198V81.1398C124.432 80.6731 124.552 80.3531 124.792 80.1798C125.046 80.0065 125.499 79.9198 126.152 79.9198C126.619 79.9198 126.932 79.9865 127.092 80.1198C127.266 80.2531 127.352 80.5465 127.352 80.9998V82.0798C127.352 82.4665 127.386 82.7065 127.452 82.7998C127.532 82.8931 127.726 82.9398 128.032 82.9398H129.472C130.259 82.9398 130.652 83.3065 130.652 84.0398C130.652 84.7465 130.292 85.0998 129.572 85.0998H127.932C127.652 85.0998 127.486 85.1465 127.432 85.2398C127.379 85.3331 127.352 85.4798 127.352 85.6798ZM142.383 87.1398C142.383 87.6998 142.309 88.0731 142.163 88.2598C142.029 88.4465 141.756 88.5398 141.343 88.5398H136.463C136.223 88.5398 136.069 88.5665 136.003 88.6198C135.949 88.6598 135.923 88.7732 135.923 88.9598C135.923 89.5198 136.103 89.9865 136.463 90.3598C136.823 90.7332 137.276 90.9198 137.823 90.9198C138.383 90.9198 138.956 90.6132 139.543 89.9998C139.943 89.5732 140.383 89.3598 140.863 89.3598C141.263 89.3598 141.583 89.4732 141.823 89.6998C142.076 89.9265 142.203 90.2132 142.203 90.5598C142.203 91.3332 141.776 91.9932 140.923 92.5398C140.083 93.0732 139.056 93.3398 137.843 93.3398C136.256 93.3398 134.989 92.8598 134.043 91.8998C133.096 90.9398 132.623 89.6598 132.623 88.0598C132.623 86.4465 133.089 85.1465 134.023 84.1598C134.969 83.1598 136.203 82.6598 137.723 82.6598C139.136 82.6598 140.263 83.0665 141.103 83.8798C141.956 84.6931 142.383 85.7798 142.383 87.1398ZM136.023 86.1398C136.023 86.2198 136.043 86.2865 136.083 86.3398C136.123 86.3931 136.263 86.4198 136.503 86.4198H138.743C138.943 86.4198 139.063 86.3998 139.103 86.3598C139.156 86.3065 139.183 86.2198 139.183 86.0998C139.183 85.7531 139.029 85.4531 138.723 85.1998C138.416 84.9331 138.056 84.7998 137.643 84.7998C137.109 84.7998 136.676 85.0065 136.343 85.4198C136.129 85.6865 136.023 85.9265 136.023 86.1398ZM148.481 83.5598V85.2598C148.667 84.5798 148.887 84.0798 149.141 83.7598C149.727 83.0265 150.547 82.6598 151.601 82.6598C152.334 82.6598 152.947 82.8998 153.441 83.3798C153.947 83.8465 154.201 84.4265 154.201 85.1198C154.201 85.6665 154.041 86.1198 153.721 86.4798C153.401 86.8265 152.994 86.9998 152.501 86.9998C152.127 86.9998 151.807 86.8798 151.541 86.6398C151.287 86.3998 151.161 86.1065 151.161 85.7598C151.161 85.5731 151.247 85.3131 151.421 84.9798H151.301C150.407 84.9798 149.807 85.4531 149.501 86.3998C149.261 87.1598 149.141 88.0332 149.141 89.0198V89.7798C149.141 90.2598 149.181 90.5665 149.261 90.6998C149.314 90.7798 149.407 90.8198 149.541 90.8198C149.661 90.8198 149.827 90.7932 150.041 90.7398C150.254 90.6865 150.414 90.6598 150.521 90.6598C150.814 90.6598 151.061 90.7665 151.261 90.9798C151.474 91.1798 151.581 91.4265 151.581 91.7198C151.581 92.1065 151.447 92.4332 151.181 92.6998C150.927 92.9532 150.614 93.0798 150.241 93.0798C150.041 93.0798 149.667 93.0465 149.121 92.9798C148.787 92.9398 148.367 92.9198 147.861 92.9198C147.354 92.9198 146.907 92.9398 146.521 92.9798C145.881 93.0465 145.487 93.0798 145.341 93.0798C144.514 93.0798 144.101 92.6332 144.101 91.7398C144.101 90.9932 144.421 90.6198 145.061 90.6198C145.167 90.6198 145.287 90.6465 145.421 90.6998C145.554 90.7398 145.654 90.7598 145.721 90.7598C145.947 90.7598 146.061 90.3865 146.061 89.6398V86.3998C146.061 85.6398 145.947 85.2598 145.721 85.2598C145.667 85.2598 145.561 85.2865 145.401 85.3398C145.254 85.3798 145.141 85.3998 145.061 85.3998C144.421 85.3998 144.101 85.0331 144.101 84.2998C144.101 83.8998 144.207 83.5731 144.421 83.3198C144.634 83.0665 144.907 82.9398 145.241 82.9398C145.374 82.9398 145.561 82.9665 145.801 83.0198C146.041 83.0731 146.267 83.0998 146.481 83.0998C146.641 83.0998 146.874 83.0731 147.181 83.0198C147.487 82.9665 147.714 82.9398 147.861 82.9398C148.274 82.9398 148.481 83.1465 148.481 83.5598ZM159.316 82.6598C160.343 82.6598 161.209 82.9465 161.916 83.5198C161.969 82.9598 162.329 82.6798 162.996 82.6798C163.676 82.6798 164.016 82.9198 164.016 83.3998C164.016 83.5598 163.989 83.7398 163.936 83.9398C163.896 84.1798 163.876 84.4065 163.876 84.6198C163.876 84.6598 163.883 84.7665 163.896 84.9398C163.896 85.1131 163.896 85.2665 163.896 85.3998V85.4798C163.896 86.1865 163.543 86.5398 162.836 86.5398C162.329 86.5398 161.889 86.2865 161.516 85.7798C161.063 85.1665 160.509 84.8598 159.856 84.8598C159.083 84.8598 158.696 85.1265 158.696 85.6598C158.696 85.9398 158.823 86.1398 159.076 86.2598C159.329 86.3665 159.996 86.5131 161.076 86.6998C161.956 86.8598 162.603 87.0398 163.016 87.2398C163.443 87.4398 163.789 87.7265 164.056 88.0998C164.389 88.5798 164.556 89.1398 164.556 89.7798C164.556 90.7932 164.163 91.6398 163.376 92.3198C162.603 92.9998 161.629 93.3398 160.456 93.3398C159.283 93.3398 158.216 92.9665 157.256 92.2198C157.256 92.8732 156.923 93.1998 156.256 93.1998C155.536 93.1998 155.176 92.9065 155.176 92.3198C155.176 92.1865 155.189 91.9798 155.216 91.6998C155.243 91.4198 155.256 91.2132 155.256 91.0798C155.256 90.9598 155.243 90.7798 155.216 90.5398C155.203 90.2998 155.196 90.1198 155.196 89.9998C155.196 89.3998 155.569 89.0998 156.316 89.0998C156.676 89.0998 156.949 89.1532 157.136 89.2598C157.323 89.3665 157.523 89.5732 157.736 89.8798C158.069 90.3732 158.376 90.6998 158.656 90.8598C158.936 91.0065 159.349 91.0798 159.896 91.0798C160.856 91.0798 161.336 90.7798 161.336 90.1798C161.336 89.7665 160.949 89.4798 160.176 89.3198L159.016 89.0798C158.069 88.8798 157.396 88.6798 156.996 88.4798C156.609 88.2798 156.303 87.9665 156.076 87.5398C155.849 87.0998 155.736 86.5998 155.736 86.0398C155.736 85.0398 156.063 84.2265 156.716 83.5998C157.383 82.9731 158.249 82.6598 159.316 82.6598Z" fill="white"/>
<path d="M75.4073 5.49682C78.5558 6.74001 82.1132 6.36612 84.9344 4.49548C87.3986 2.86161 90.6014 2.86161 93.0656 4.49548C95.8868 6.36612 99.4442 6.74001 102.593 5.49682C105.343 4.41098 108.476 5.07689 110.546 7.18739C112.917 9.60372 116.319 10.7091 119.657 10.1477C122.573 9.6573 125.499 10.96 127.085 13.4549C128.902 16.3113 131.999 18.0998 135.381 18.2447C138.335 18.3713 140.926 20.2539 141.96 23.0241C143.143 26.1958 145.801 28.5892 149.079 29.4341C151.942 30.1721 154.085 32.5523 154.52 35.4768C155.017 38.8251 157.12 41.7189 160.15 43.2268C162.797 44.5439 164.399 47.3177 164.216 50.2687C164.006 53.6472 165.461 56.9149 168.112 59.0201C170.428 60.8587 171.417 63.9048 170.625 66.7533C169.718 70.0145 170.461 73.5133 172.617 76.1236C174.499 78.4034 174.834 81.5887 173.467 84.2102C171.901 87.2115 171.901 90.7885 173.467 93.7898C174.834 96.4113 174.499 99.5966 172.617 101.876C170.461 104.487 169.718 107.985 170.625 111.247C171.417 114.095 170.428 117.141 168.112 118.98C165.461 121.085 164.006 124.353 164.216 127.731C164.399 130.682 162.797 133.456 160.15 134.773C157.12 136.281 155.017 139.175 154.52 142.523C154.085 145.448 151.942 147.828 149.079 148.566C145.801 149.411 143.143 151.804 141.96 154.976C140.926 157.746 138.335 159.629 135.381 159.755C131.999 159.9 128.902 161.689 127.085 164.545C125.499 167.04 122.573 168.343 119.657 167.852C116.319 167.291 112.917 168.396 110.546 170.813C108.476 172.923 105.343 173.589 102.593 172.503C99.4442 171.26 95.8868 171.634 93.0656 173.505C90.6014 175.138 87.3986 175.138 84.9344 173.505C82.1132 171.634 78.5558 171.26 75.4073 172.503C72.6573 173.589 69.5244 172.923 67.4538 170.813C65.0831 168.396 61.6812 167.291 58.343 167.852C55.4273 168.343 52.5014 167.04 50.9148 164.545C49.0983 161.689 46.0006 159.9 42.6186 159.755C39.6647 159.629 37.0735 157.746 36.0404 154.976C34.8574 151.804 32.1993 149.411 28.9213 148.566C26.0583 147.828 23.9151 145.448 23.4805 142.523C22.9829 139.175 20.8804 136.281 17.8497 134.773C15.2027 133.456 13.6012 130.682 13.7841 127.731C13.9935 124.353 12.5387 121.085 9.88777 118.98C7.57239 117.141 6.58265 114.095 7.37509 111.247C8.28236 107.985 7.53867 104.487 5.38338 101.876C3.50088 99.5966 3.16609 96.4113 4.53344 93.7898C6.09893 90.7885 6.09893 87.2115 4.53344 84.2102C3.16609 81.5887 3.50088 78.4034 5.38338 76.1236C7.53867 73.5133 8.28236 70.0145 7.37509 66.7533C6.58265 63.9048 7.57239 60.8587 9.88777 59.0201C12.5387 56.9149 13.9935 53.6472 13.7841 50.2687C13.6012 47.3177 15.2027 44.5439 17.8497 43.2268C20.8804 41.7189 22.9829 38.8251 23.4805 35.4768C23.9151 32.5523 26.0583 30.1721 28.9213 29.4341C32.1993 28.5892 34.8574 26.1958 36.0404 23.0241C37.0735 20.2539 39.6647 18.3713 42.6186 18.2447C46.0006 18.0998 49.0983 16.3113 50.9148 13.4549C52.5014 10.96 55.4273 9.6573 58.343 10.1477C61.6812 10.7091 65.0831 9.60372 67.4538 7.18739C69.5244 5.07689 72.6573 4.41098 75.4073 5.49682Z" stroke="white" stroke-width="3"/>
</svg>
