<svg width="237" height="32" viewBox="0 0 237 32" fill="none" xmlns="http://www.w3.org/2000/svg">
<path d="M5.11902 14.745V11.945L5.08402 6.59C5.08402 5.23667 4.69902 4.56 3.92902 4.56C3.78902 4.56 3.60236 4.58333 3.36902 4.63C2.97236 4.7 2.64569 4.735 2.38902 4.735C1.94569 4.735 1.56069 4.595 1.23402 4.315C0.93069 4.01167 0.779023 3.62667 0.779023 3.16C0.779023 2.06333 1.44402 1.515 2.77402 1.515C2.82069 1.515 2.89069 1.515 2.98402 1.515C3.10069 1.515 3.21736 1.52667 3.33402 1.55L5.60902 1.795C6.05236 1.84167 6.50736 1.87667 6.97402 1.9C7.46402 1.92333 7.97736 1.935 8.51402 1.935C9.09736 1.935 10.334 1.9 12.224 1.83L16.144 1.69H16.109L17.894 1.585C18.0107 1.56167 18.1624 1.55 18.349 1.55C18.559 1.55 18.7574 1.55 18.944 1.55C20.5307 1.55 21.324 2.23833 21.324 3.615C21.324 3.84833 21.3007 4.11667 21.254 4.42C21.2307 4.72333 21.1957 5.085 21.149 5.505C21.1024 5.925 21.0557 6.28667 21.009 6.59C20.9857 6.89333 20.974 7.13833 20.974 7.325C20.974 7.51167 20.974 7.69833 20.974 7.885C20.9974 8.07167 21.0207 8.29333 21.044 8.55C21.0674 8.80667 21.079 9.075 21.079 9.355C21.1024 9.635 21.114 9.90333 21.114 10.16C21.114 11.3967 20.519 12.015 19.329 12.015C18.1157 12.015 17.509 11.3267 17.509 9.95C17.509 9.78667 17.509 9.58833 17.509 9.355C17.509 9.09833 17.5207 8.80667 17.544 8.48C17.544 8.41 17.544 8.34 17.544 8.27C17.5674 8.17667 17.579 8.10667 17.579 8.06C17.6024 7.85 17.614 7.66333 17.614 7.5C17.614 7.31333 17.614 7.16167 17.614 7.045C17.614 6.04167 17.3924 5.44667 16.949 5.26C16.2724 4.95667 14.7557 4.805 12.399 4.805C10.509 4.805 9.44736 4.945 9.21402 5.225C9.07402 5.41167 9.00402 6.33333 9.00402 7.99V10.475C9.00402 10.8717 9.06236 11.1283 9.17902 11.245C9.29569 11.3383 9.59902 11.385 10.089 11.385H11.209C12.2824 11.385 12.819 11.0117 12.819 10.265C12.819 10.125 12.8074 9.97333 12.784 9.81C12.7607 9.62333 12.7374 9.43667 12.714 9.25C12.6907 9.06333 12.6674 8.88833 12.644 8.725C12.644 8.53833 12.644 8.38667 12.644 8.27C12.644 7.10333 13.239 6.52 14.429 6.52C15.5724 6.52 16.144 7.17333 16.144 8.48C16.144 8.52667 16.144 8.59667 16.144 8.69C16.144 8.76 16.1324 8.84167 16.109 8.935C16.109 8.98167 16.0974 9.04 16.074 9.11C16.074 9.18 16.074 9.26167 16.074 9.355L15.864 11.175C15.8174 11.5717 15.7824 11.91 15.759 12.19C15.7357 12.47 15.724 12.7033 15.724 12.89C15.724 13.7767 15.829 14.92 16.039 16.32C16.109 16.81 16.144 17.2883 16.144 17.755C16.144 18.945 15.549 19.54 14.359 19.54C13.2157 19.54 12.644 18.91 12.644 17.65C12.644 17.5333 12.644 17.3817 12.644 17.195C12.644 17.0083 12.6557 16.81 12.679 16.6C12.7024 16.39 12.714 16.2033 12.714 16.04C12.7374 15.8767 12.749 15.7367 12.749 15.62C12.749 15.1067 12.6207 14.78 12.364 14.64C12.2474 14.5467 11.8624 14.5 11.209 14.5H10.159C9.55236 14.5 9.20236 14.5467 9.10902 14.64C9.03902 14.71 9.00402 15.095 9.00402 15.795V19.785C9.00402 20.6717 9.07402 21.2667 9.21402 21.57C9.37736 21.8733 9.68069 22.025 10.124 22.025C10.1707 22.025 10.2524 22.025 10.369 22.025C10.4857 22.025 10.6257 22.0133 10.789 21.99C10.9524 21.99 11.104 21.99 11.244 21.99C11.384 21.9667 11.5007 21.955 11.594 21.955C13.0174 21.955 13.729 22.4917 13.729 23.565C13.729 24.0317 13.554 24.4167 13.204 24.72C12.854 25.0233 12.434 25.175 11.944 25.175C11.6874 25.175 11.4307 25.1517 11.174 25.105C10.9174 25.0817 10.614 25.0467 10.264 25C9.77402 24.9067 9.24902 24.8483 8.68902 24.825C8.15236 24.7783 7.59236 24.755 7.00902 24.755C6.23902 24.755 5.39902 24.825 4.48902 24.965L3.33402 25.14C3.24069 25.14 3.15902 25.1517 3.08902 25.175H2.84402C1.46736 25.175 0.779023 24.615 0.779023 23.495C0.779023 22.4683 1.31569 21.955 2.38902 21.955C2.41236 21.955 2.44736 21.9667 2.49402 21.99C2.54069 21.99 2.59902 21.99 2.66902 21.99C2.73902 21.99 2.82069 21.99 2.91402 21.99C3.03069 21.99 3.15902 22.0017 3.29902 22.025C3.41569 22.0483 3.53236 22.0717 3.64902 22.095C3.76569 22.095 3.87069 22.095 3.96402 22.095C4.36069 22.095 4.62902 21.955 4.76902 21.675C4.93236 21.3717 5.02569 20.835 5.04902 20.065L5.11902 14.745ZM30.8263 25.56C28.3296 25.56 26.3346 24.7083 24.8413 23.005C23.3479 21.3017 22.6013 19.05 22.6013 16.25C22.6013 13.4267 23.3479 11.1867 24.8413 9.53C26.3346 7.80333 28.3646 6.94 30.9313 6.94C33.4979 6.94 35.5396 7.78 37.0563 9.46C38.5263 11.1167 39.2613 13.345 39.2613 16.145C39.2613 18.9917 38.5029 21.255 36.9863 22.935C35.4696 24.685 33.4163 25.56 30.8263 25.56ZM31.0013 10.055C29.6013 10.055 28.5046 10.5567 27.7113 11.56C26.9413 12.5633 26.5213 13.9983 26.4513 15.865V16.25C26.4513 18.1867 26.8363 19.7033 27.6063 20.8C28.3763 21.8967 29.4613 22.445 30.8613 22.445C32.2846 22.445 33.4046 21.9083 34.2213 20.835C35.0613 19.7383 35.4813 18.1983 35.4813 16.215C35.4813 12.1083 33.9879 10.055 31.0013 10.055ZM56.7927 25.14C55.906 25.14 55.4044 24.7783 55.2877 24.055C54.0744 25.0583 52.5344 25.56 50.6677 25.56C47.8444 25.56 45.8727 24.6733 44.7527 22.9C44.5194 22.5267 44.3327 22.1067 44.1927 21.64C44.0527 21.1733 43.971 20.7067 43.9477 20.24C43.9244 19.96 43.9127 19.5633 43.9127 19.05C43.9127 18.5367 43.9127 17.9417 43.9127 17.265V14.535C43.9127 11.805 43.7727 10.44 43.4927 10.44C43.446 10.44 43.376 10.4517 43.2827 10.475C43.1894 10.475 43.0844 10.4867 42.9677 10.51C42.851 10.5333 42.676 10.5567 42.4427 10.58C42.2327 10.6033 42.151 10.615 42.1977 10.615C41.0544 10.615 40.4827 10.09 40.4827 9.04C40.4827 8.03667 41.1477 7.535 42.4777 7.535C42.5944 7.535 42.7344 7.54667 42.8977 7.57C43.0844 7.57 43.271 7.58167 43.4577 7.605C43.6444 7.62833 43.8194 7.65167 43.9827 7.675C44.1694 7.675 44.321 7.675 44.4377 7.675C44.5077 7.675 44.636 7.675 44.8227 7.675C45.0094 7.65167 45.196 7.61667 45.3827 7.57C45.476 7.54667 45.5694 7.535 45.6627 7.535C45.756 7.51167 45.8727 7.5 46.0127 7.5C47.086 7.5 47.6227 8.07167 47.6227 9.215V9.915L47.5877 12.12L47.4827 14.57V16.67C47.4827 17.6267 47.5177 18.4317 47.5877 19.085C47.681 19.7383 47.786 20.2633 47.9027 20.66C48.346 21.85 49.3844 22.445 51.0177 22.445C51.8344 22.445 52.5577 22.2583 53.1877 21.885C53.841 21.5117 54.296 21.01 54.5527 20.38C54.8794 19.5867 55.0427 18.0117 55.0427 15.655V11.665C54.9727 10.9183 54.8677 10.545 54.7277 10.545C54.6344 10.545 54.471 10.5683 54.2377 10.615H53.7477C52.6044 10.615 52.0327 10.1133 52.0327 9.11C52.0327 8.03667 52.651 7.5 53.8877 7.5C54.0044 7.5 54.1444 7.51167 54.3077 7.535C54.471 7.535 54.646 7.54667 54.8327 7.57C55.0194 7.59333 55.1944 7.61667 55.3577 7.64C55.521 7.64 55.6377 7.64 55.7077 7.64C55.7777 7.64 55.871 7.64 55.9877 7.64C56.1277 7.64 56.2794 7.62833 56.4427 7.605C56.5827 7.58167 56.7227 7.57 56.8627 7.57C57.026 7.54667 57.166 7.535 57.2827 7.535C58.3327 7.535 58.8577 8.03667 58.8577 9.04C58.8577 9.36667 58.8344 9.64667 58.7877 9.88V9.845C58.741 10.265 58.6944 10.7783 58.6477 11.385C58.6244 11.9917 58.6127 12.6917 58.6127 13.485V18.595C58.6127 19.9017 58.6244 20.6133 58.6477 20.73C58.7644 21.6867 58.881 22.165 58.9977 22.165C59.0444 22.165 59.126 22.165 59.2427 22.165C59.3594 22.1417 59.4877 22.1183 59.6277 22.095C59.7444 22.0717 59.896 22.0483 60.0827 22.025C60.2927 22.0017 60.3744 21.99 60.3277 21.99C61.471 21.99 62.0427 22.5033 62.0427 23.53C62.0427 24.6033 61.3894 25.14 60.0827 25.14C59.9894 25.14 59.8727 25.14 59.7327 25.14C59.616 25.14 59.4994 25.1283 59.3827 25.105C59.336 25.105 59.2894 25.0933 59.2427 25.07C59.196 25.07 59.161 25.07 59.1377 25.07C58.5777 25 58.2627 24.965 58.1927 24.965C58.1694 24.965 58.1344 24.9767 58.0877 25C58.0644 25 58.0294 25 57.9827 25C57.8427 25 57.7144 25.0117 57.5977 25.035H57.6327C57.3527 25.105 57.0727 25.14 56.7927 25.14ZM68.1026 7.535C68.8726 7.535 69.3276 7.83833 69.4676 8.445C70.611 7.44167 71.976 6.94 73.5626 6.94C74.426 6.94 75.2076 7.06833 75.9076 7.325C76.6076 7.55833 77.2143 7.90833 77.7276 8.375C78.241 8.81833 78.6376 9.355 78.9176 9.985C79.1976 10.615 79.3376 11.315 79.3376 12.085C79.3376 13.205 79.046 14.115 78.4626 14.815C77.8793 15.4917 77.0976 15.83 76.1176 15.83C75.441 15.83 74.8693 15.6317 74.4026 15.235C73.9593 14.8383 73.7376 14.3483 73.7376 13.765C73.7376 13.2983 73.9243 12.8783 74.2976 12.505C74.6943 12.1317 75.1376 11.945 75.6276 11.945C75.6743 11.945 75.6626 11.9333 75.5926 11.91C75.546 11.8867 75.581 11.8983 75.6976 11.945V11.77C75.6976 11.2567 75.4643 10.825 74.9976 10.475C74.5543 10.125 73.9943 9.95 73.3176 9.95C71.8476 9.95 70.8676 10.6267 70.3776 11.98C70.051 12.9133 69.8876 14.29 69.8876 16.11V18.315C69.8876 18.9917 69.8876 19.5283 69.8876 19.925C69.8876 20.3217 69.8993 20.5667 69.9226 20.66C70.0393 21.6867 70.191 22.2 70.3776 22.2C70.5176 22.2 70.646 22.2 70.7626 22.2C70.8793 22.1767 70.996 22.1533 71.1126 22.13C71.416 22.0367 71.6843 21.99 71.9176 21.99C72.991 21.99 73.5276 22.4917 73.5276 23.495C73.5276 24.5917 72.886 25.14 71.6026 25.14H71.4976C71.311 25.14 71.0776 25.1283 70.7976 25.105C70.541 25.0817 70.2376 25.0467 69.8876 25C69.211 24.93 68.7326 24.895 68.4526 24.895C68.0093 24.895 67.6243 24.9067 67.2976 24.93C66.971 24.93 66.6793 24.9417 66.4226 24.965L64.5326 25.14C63.2493 25.14 62.6076 24.5917 62.6076 23.495C62.6076 22.515 63.2143 22.025 64.4276 22.025C64.5443 22.025 64.6376 22.025 64.7076 22.025C64.801 22.0017 64.906 22.0133 65.0226 22.06L65.4426 22.165H65.7226C65.746 22.1883 65.781 22.2 65.8276 22.2H65.8626C66.0726 22.2 66.1893 21.85 66.2126 21.15C66.2126 20.87 66.2243 20.59 66.2476 20.31C66.271 20.03 66.2826 19.75 66.2826 19.47L66.1776 11.945C66.131 11.0817 66.0143 10.5917 65.8276 10.475C65.781 10.475 65.6643 10.4867 65.4776 10.51C65.291 10.5333 65.1626 10.545 65.0926 10.545H65.1626C64.8826 10.615 64.591 10.65 64.2876 10.65C63.191 10.65 62.6426 10.1367 62.6426 9.11C62.6426 8.03667 63.296 7.5 64.6026 7.5C64.6493 7.52333 64.7893 7.54667 65.0226 7.57C65.256 7.57 65.466 7.58167 65.6526 7.605C65.8393 7.62833 66.0143 7.65167 66.1776 7.675C66.3643 7.675 66.5043 7.675 66.5976 7.675C66.6443 7.675 66.7026 7.675 66.7726 7.675C66.866 7.675 66.971 7.66333 67.0876 7.64C67.1343 7.64 67.1693 7.64 67.1926 7.64C67.2393 7.61667 67.2976 7.605 67.3676 7.605C67.601 7.55833 67.846 7.535 68.1026 7.535ZM109.9 13.1C109.9 15.7833 109.457 18.07 108.57 19.96C107.707 21.8267 106.353 23.355 104.51 24.545V26.855C104.51 28.1383 104.965 28.78 105.875 28.78C106.388 28.78 106.738 28.6517 106.925 28.395V28.43C107.065 28.22 107.147 27.7767 107.17 27.1C107.217 25.7467 107.812 25.07 108.955 25.07C110.192 25.07 110.81 25.77 110.81 27.17C110.81 28.5467 110.367 29.655 109.48 30.495C108.593 31.335 107.415 31.755 105.945 31.755C102.748 31.755 101.15 30.2967 101.15 27.38V25.63C100.66 25.7 100.158 25.735 99.645 25.735C98.035 25.735 96.6 25.455 95.34 24.895C94.1033 24.335 93.0183 23.495 92.085 22.375C90.2417 20.135 89.32 17.1717 89.32 13.485C89.32 9.58833 90.2417 6.53167 92.085 4.315C93.9283 2.05167 96.4833 0.919999 99.75 0.919999C102.923 0.919999 105.408 2.02833 107.205 4.245C109.002 6.415 109.9 9.36667 109.9 13.1ZM104.545 19.785L104.44 19.995C104.417 20.0417 104.405 20.0533 104.405 20.03C104.428 19.9833 104.475 19.89 104.545 19.75V19.785ZM99.645 14.955C101.185 14.955 102.375 15.3867 103.215 16.25C104.078 17.09 104.522 18.2567 104.545 19.75L104.825 19.085C105.478 17.3583 105.805 15.34 105.805 13.03C105.805 10.23 105.268 8.07167 104.195 6.555C103.145 5.03833 101.663 4.28 99.75 4.28C97.6967 4.28 96.11 5.07333 94.99 6.66C93.87 8.24667 93.31 10.4867 93.31 13.38C93.31 14.6633 93.3917 15.7833 93.555 16.74C93.7183 17.6967 93.9867 18.56 94.36 19.33C94.36 18.7 94.4883 18.1283 94.745 17.615C95.025 17.0783 95.41 16.6 95.9 16.18C96.9033 15.3633 98.1517 14.955 99.645 14.955ZM99.68 22.62C100.123 22.62 100.625 22.55 101.185 22.41V20.17C101.185 18.7 100.625 17.965 99.505 17.965C98.8517 17.965 98.315 18.1633 97.895 18.56C97.4983 18.9567 97.3 19.4933 97.3 20.17C97.3 20.9167 97.51 21.5117 97.93 21.955C98.3733 22.3983 98.9567 22.62 99.68 22.62ZM127.34 25.14C126.453 25.14 125.951 24.7783 125.835 24.055C124.621 25.0583 123.081 25.56 121.215 25.56C118.391 25.56 116.42 24.6733 115.3 22.9C115.066 22.5267 114.88 22.1067 114.74 21.64C114.6 21.1733 114.518 20.7067 114.495 20.24C114.471 19.96 114.46 19.5633 114.46 19.05C114.46 18.5367 114.46 17.9417 114.46 17.265V14.535C114.46 11.805 114.32 10.44 114.04 10.44C113.993 10.44 113.923 10.4517 113.83 10.475C113.736 10.475 113.631 10.4867 113.515 10.51C113.398 10.5333 113.223 10.5567 112.99 10.58C112.78 10.6033 112.698 10.615 112.745 10.615C111.601 10.615 111.03 10.09 111.03 9.04C111.03 8.03667 111.695 7.535 113.025 7.535C113.141 7.535 113.281 7.54667 113.445 7.57C113.631 7.57 113.818 7.58167 114.005 7.605C114.191 7.62833 114.366 7.65167 114.53 7.675C114.716 7.675 114.868 7.675 114.985 7.675C115.055 7.675 115.183 7.675 115.37 7.675C115.556 7.65167 115.743 7.61667 115.93 7.57C116.023 7.54667 116.116 7.535 116.21 7.535C116.303 7.51167 116.42 7.5 116.56 7.5C117.633 7.5 118.17 8.07167 118.17 9.215V9.915L118.135 12.12L118.03 14.57V16.67C118.03 17.6267 118.065 18.4317 118.135 19.085C118.228 19.7383 118.333 20.2633 118.45 20.66C118.893 21.85 119.931 22.445 121.565 22.445C122.381 22.445 123.105 22.2583 123.735 21.885C124.388 21.5117 124.843 21.01 125.1 20.38C125.426 19.5867 125.59 18.0117 125.59 15.655V11.665C125.52 10.9183 125.415 10.545 125.275 10.545C125.181 10.545 125.018 10.5683 124.785 10.615H124.295C123.151 10.615 122.58 10.1133 122.58 9.11C122.58 8.03667 123.198 7.5 124.435 7.5C124.551 7.5 124.691 7.51167 124.855 7.535C125.018 7.535 125.193 7.54667 125.38 7.57C125.566 7.59333 125.741 7.61667 125.905 7.64C126.068 7.64 126.185 7.64 126.255 7.64C126.325 7.64 126.418 7.64 126.535 7.64C126.675 7.64 126.826 7.62833 126.99 7.605C127.13 7.58167 127.27 7.57 127.41 7.57C127.573 7.54667 127.713 7.535 127.83 7.535C128.88 7.535 129.405 8.03667 129.405 9.04C129.405 9.36667 129.381 9.64667 129.335 9.88V9.845C129.288 10.265 129.241 10.7783 129.195 11.385C129.171 11.9917 129.16 12.6917 129.16 13.485V18.595C129.16 19.9017 129.171 20.6133 129.195 20.73C129.311 21.6867 129.428 22.165 129.545 22.165C129.591 22.165 129.673 22.165 129.79 22.165C129.906 22.1417 130.035 22.1183 130.175 22.095C130.291 22.0717 130.443 22.0483 130.63 22.025C130.84 22.0017 130.921 21.99 130.875 21.99C132.018 21.99 132.59 22.5033 132.59 23.53C132.59 24.6033 131.936 25.14 130.63 25.14C130.536 25.14 130.42 25.14 130.28 25.14C130.163 25.14 130.046 25.1283 129.93 25.105C129.883 25.105 129.836 25.0933 129.79 25.07C129.743 25.07 129.708 25.07 129.685 25.07C129.125 25 128.81 24.965 128.74 24.965C128.716 24.965 128.681 24.9767 128.635 25C128.611 25 128.576 25 128.53 25C128.39 25 128.261 25.0117 128.145 25.035H128.18C127.9 25.105 127.62 25.14 127.34 25.14ZM148.799 25.42C147.073 25.42 145.906 24.8367 145.299 23.67C144.063 24.93 142.348 25.56 140.154 25.56C138.171 25.56 136.596 25.0817 135.429 24.125C134.263 23.145 133.679 21.85 133.679 20.24C133.679 19.26 133.913 18.3967 134.379 17.65C134.869 16.88 135.523 16.2617 136.339 15.795C136.969 15.445 137.518 15.2117 137.984 15.095C138.428 14.9783 139.326 14.8383 140.679 14.675C142.453 14.4883 143.584 14.2433 144.074 13.94C144.471 13.66 144.669 13.135 144.669 12.365C144.669 11.6183 144.401 11.0233 143.864 10.58C143.351 10.1367 142.616 9.915 141.659 9.915C140.749 9.915 139.921 10.1717 139.174 10.685V10.65C139.011 10.8133 138.929 10.9067 138.929 10.93H138.964C139.454 11.35 139.699 11.8517 139.699 12.435C139.699 13.0183 139.478 13.4967 139.034 13.87C138.614 14.2433 138.078 14.43 137.424 14.43C136.678 14.43 136.059 14.1967 135.569 13.73C135.079 13.24 134.834 12.6333 134.834 11.91C134.834 10.51 135.523 9.33167 136.899 8.375C138.206 7.41833 139.804 6.94 141.694 6.94C146.104 6.94 148.309 9.02833 148.309 13.205V19.89C148.309 20.3567 148.309 20.7533 148.309 21.08C148.333 21.3833 148.356 21.5933 148.379 21.71C148.496 22.2233 148.683 22.48 148.939 22.48C149.336 22.48 149.534 21.9317 149.534 20.835V19.19C149.534 18.1867 150.059 17.685 151.109 17.685C152.229 17.685 152.789 18.3617 152.789 19.715V19.89L152.754 21.78C152.708 24.2067 151.389 25.42 148.799 25.42ZM144.599 17.055C144.459 17.1017 144.319 17.16 144.179 17.23C144.063 17.2767 143.923 17.3233 143.759 17.37C143.129 17.58 142.138 17.7433 140.784 17.86C138.591 18.07 137.494 18.8517 137.494 20.205C137.494 20.8817 137.739 21.43 138.229 21.85C138.743 22.2467 139.443 22.445 140.329 22.445C141.659 22.445 142.686 22.0833 143.409 21.36C144.156 20.6367 144.541 19.645 144.564 18.385L144.599 17.055ZM158.405 7.535C159.175 7.535 159.63 7.83833 159.77 8.445C160.914 7.44167 162.279 6.94 163.865 6.94C164.729 6.94 165.51 7.06833 166.21 7.325C166.91 7.55833 167.517 7.90833 168.03 8.375C168.544 8.81833 168.94 9.355 169.22 9.985C169.5 10.615 169.64 11.315 169.64 12.085C169.64 13.205 169.349 14.115 168.765 14.815C168.182 15.4917 167.4 15.83 166.42 15.83C165.744 15.83 165.172 15.6317 164.705 15.235C164.262 14.8383 164.04 14.3483 164.04 13.765C164.04 13.2983 164.227 12.8783 164.6 12.505C164.997 12.1317 165.44 11.945 165.93 11.945C165.977 11.945 165.965 11.9333 165.895 11.91C165.849 11.8867 165.884 11.8983 166 11.945V11.77C166 11.2567 165.767 10.825 165.3 10.475C164.857 10.125 164.297 9.95 163.62 9.95C162.15 9.95 161.17 10.6267 160.68 11.98C160.354 12.9133 160.19 14.29 160.19 16.11V18.315C160.19 18.9917 160.19 19.5283 160.19 19.925C160.19 20.3217 160.202 20.5667 160.225 20.66C160.342 21.6867 160.494 22.2 160.68 22.2C160.82 22.2 160.949 22.2 161.065 22.2C161.182 22.1767 161.299 22.1533 161.415 22.13C161.719 22.0367 161.987 21.99 162.22 21.99C163.294 21.99 163.83 22.4917 163.83 23.495C163.83 24.5917 163.189 25.14 161.905 25.14H161.8C161.614 25.14 161.38 25.1283 161.1 25.105C160.844 25.0817 160.54 25.0467 160.19 25C159.514 24.93 159.035 24.895 158.755 24.895C158.312 24.895 157.927 24.9067 157.6 24.93C157.274 24.93 156.982 24.9417 156.725 24.965L154.835 25.14C153.552 25.14 152.91 24.5917 152.91 23.495C152.91 22.515 153.517 22.025 154.73 22.025C154.847 22.025 154.94 22.025 155.01 22.025C155.104 22.0017 155.209 22.0133 155.325 22.06L155.745 22.165H156.025C156.049 22.1883 156.084 22.2 156.13 22.2H156.165C156.375 22.2 156.492 21.85 156.515 21.15C156.515 20.87 156.527 20.59 156.55 20.31C156.574 20.03 156.585 19.75 156.585 19.47L156.48 11.945C156.434 11.0817 156.317 10.5917 156.13 10.475C156.084 10.475 155.967 10.4867 155.78 10.51C155.594 10.5333 155.465 10.545 155.395 10.545H155.465C155.185 10.615 154.894 10.65 154.59 10.65C153.494 10.65 152.945 10.1367 152.945 9.11C152.945 8.03667 153.599 7.5 154.905 7.5C154.952 7.52333 155.092 7.54667 155.325 7.57C155.559 7.57 155.769 7.58167 155.955 7.605C156.142 7.62833 156.317 7.65167 156.48 7.675C156.667 7.675 156.807 7.675 156.9 7.675C156.947 7.675 157.005 7.675 157.075 7.675C157.169 7.675 157.274 7.66333 157.39 7.64C157.437 7.64 157.472 7.64 157.495 7.64C157.542 7.61667 157.6 7.605 157.67 7.605C157.904 7.55833 158.149 7.535 158.405 7.535ZM180.657 17.825C180.704 16.6117 181.299 16.005 182.442 16.005C183.585 16.005 184.157 16.67 184.157 18C184.157 19.26 184.064 20.3333 183.877 21.22C183.69 22.0833 183.434 22.7833 183.107 23.32C182.174 24.72 180.645 25.42 178.522 25.42C177.542 25.42 176.69 25.2567 175.967 24.93C175.267 24.6033 174.707 24.1367 174.287 23.53C173.657 22.5733 173.342 21.0917 173.342 19.085V11.14C173.342 10.9767 173.319 10.895 173.272 10.895H172.222C171.709 10.895 171.277 10.7433 170.927 10.44C170.6 10.1133 170.437 9.71667 170.437 9.25C170.437 8.83 170.6 8.45667 170.927 8.13C171.277 7.78 171.674 7.605 172.117 7.605H173.412V4.035C173.412 2.86833 174.03 2.285 175.267 2.285C176.434 2.285 177.017 2.86833 177.017 4.035V7.57C177.017 7.59333 177.029 7.605 177.052 7.605H180.657C181.87 7.605 182.477 8.14167 182.477 9.215C182.477 10.335 181.847 10.895 180.587 10.895H176.912C176.982 10.9417 177.017 11.0233 177.017 11.14V19.295C177.017 21.3017 177.589 22.305 178.732 22.305C179.969 22.305 180.587 21.5233 180.587 19.96L180.657 17.825ZM201.741 14.78C201.741 15.3167 201.729 15.7367 201.706 16.04C201.682 16.3433 201.612 16.5767 201.496 16.74C201.379 16.9033 201.204 17.0083 200.971 17.055C200.761 17.0783 200.457 17.09 200.061 17.09H189.526C189.432 17.09 189.386 17.1017 189.386 17.125C189.386 18.6883 189.841 19.96 190.751 20.94C191.614 21.9433 192.699 22.445 194.006 22.445C194.869 22.445 195.651 22.2117 196.351 21.745C197.051 21.2783 197.506 20.6833 197.716 19.96L198.031 19.015C198.171 18.665 198.369 18.385 198.626 18.175C198.906 17.965 199.244 17.86 199.641 17.86C200.854 17.86 201.461 18.4433 201.461 19.61C201.461 21.1967 200.644 22.5967 199.011 23.81C197.447 24.9767 195.686 25.56 193.726 25.56C191.206 25.56 189.211 24.7317 187.741 23.075C186.294 21.4183 185.571 19.225 185.571 16.495C185.571 13.7417 186.341 11.455 187.881 9.635C189.444 7.83833 191.486 6.94 194.006 6.94C195.172 6.94 196.211 7.12667 197.121 7.5C198.031 7.87333 198.847 8.42167 199.571 9.145C201.017 10.6617 201.741 12.54 201.741 14.78ZM197.926 13.94C197.926 12.89 197.541 11.98 196.771 11.21C195.954 10.44 195.044 10.055 194.041 10.055C193.014 10.055 192.011 10.475 191.031 11.315C190.144 12.1317 189.701 13.0067 189.701 13.94H197.926ZM208.752 7.535C209.522 7.535 209.977 7.83833 210.117 8.445C211.26 7.44167 212.625 6.94 214.212 6.94C215.075 6.94 215.857 7.06833 216.557 7.325C217.257 7.55833 217.864 7.90833 218.377 8.375C218.89 8.81833 219.287 9.355 219.567 9.985C219.847 10.615 219.987 11.315 219.987 12.085C219.987 13.205 219.695 14.115 219.112 14.815C218.529 15.4917 217.747 15.83 216.767 15.83C216.09 15.83 215.519 15.6317 215.052 15.235C214.609 14.8383 214.387 14.3483 214.387 13.765C214.387 13.2983 214.574 12.8783 214.947 12.505C215.344 12.1317 215.787 11.945 216.277 11.945C216.324 11.945 216.312 11.9333 216.242 11.91C216.195 11.8867 216.23 11.8983 216.347 11.945V11.77C216.347 11.2567 216.114 10.825 215.647 10.475C215.204 10.125 214.644 9.95 213.967 9.95C212.497 9.95 211.517 10.6267 211.027 11.98C210.7 12.9133 210.537 14.29 210.537 16.11V18.315C210.537 18.9917 210.537 19.5283 210.537 19.925C210.537 20.3217 210.549 20.5667 210.572 20.66C210.689 21.6867 210.84 22.2 211.027 22.2C211.167 22.2 211.295 22.2 211.412 22.2C211.529 22.1767 211.645 22.1533 211.762 22.13C212.065 22.0367 212.334 21.99 212.567 21.99C213.64 21.99 214.177 22.4917 214.177 23.495C214.177 24.5917 213.535 25.14 212.252 25.14H212.147C211.96 25.14 211.727 25.1283 211.447 25.105C211.19 25.0817 210.887 25.0467 210.537 25C209.86 24.93 209.382 24.895 209.102 24.895C208.659 24.895 208.274 24.9067 207.947 24.93C207.62 24.93 207.329 24.9417 207.072 24.965L205.182 25.14C203.899 25.14 203.257 24.5917 203.257 23.495C203.257 22.515 203.864 22.025 205.077 22.025C205.194 22.025 205.287 22.025 205.357 22.025C205.45 22.0017 205.555 22.0133 205.672 22.06L206.092 22.165H206.372C206.395 22.1883 206.43 22.2 206.477 22.2H206.512C206.722 22.2 206.839 21.85 206.862 21.15C206.862 20.87 206.874 20.59 206.897 20.31C206.92 20.03 206.932 19.75 206.932 19.47L206.827 11.945C206.78 11.0817 206.664 10.5917 206.477 10.475C206.43 10.475 206.314 10.4867 206.127 10.51C205.94 10.5333 205.812 10.545 205.742 10.545H205.812C205.532 10.615 205.24 10.65 204.937 10.65C203.84 10.65 203.292 10.1367 203.292 9.11C203.292 8.03667 203.945 7.5 205.252 7.5C205.299 7.52333 205.439 7.54667 205.672 7.57C205.905 7.57 206.115 7.58167 206.302 7.605C206.489 7.62833 206.664 7.65167 206.827 7.675C207.014 7.675 207.154 7.675 207.247 7.675C207.294 7.675 207.352 7.675 207.422 7.675C207.515 7.675 207.62 7.66333 207.737 7.64C207.784 7.64 207.819 7.64 207.842 7.64C207.889 7.61667 207.947 7.605 208.017 7.605C208.25 7.55833 208.495 7.535 208.752 7.535ZM228.779 6.94C230.063 6.94 231.148 7.19667 232.034 7.71C232.244 7.05667 232.758 6.73 233.574 6.73C234.671 6.73 235.219 7.24333 235.219 8.27C235.219 8.31667 235.208 8.36333 235.184 8.41C235.184 8.45667 235.184 8.53833 235.184 8.655C235.184 8.74833 235.173 8.865 235.149 9.005C235.149 9.12167 235.149 9.23833 235.149 9.355C235.103 9.565 235.068 9.775 235.044 9.985C235.021 10.195 235.009 10.3933 235.009 10.58C235.009 10.8833 235.044 11.245 235.114 11.665C235.161 11.9217 235.196 12.155 235.219 12.365C235.243 12.5517 235.254 12.7267 235.254 12.89C235.254 14.0567 234.706 14.64 233.609 14.64C232.536 14.64 231.976 14.1383 231.929 13.135L231.894 12.015C231.871 11.4783 231.544 11.0233 230.914 10.65C230.308 10.2533 229.573 10.055 228.709 10.055C227.869 10.055 227.158 10.265 226.574 10.685C225.991 11.105 225.699 11.6417 225.699 12.295C225.699 12.855 225.921 13.31 226.364 13.66C226.808 13.9867 227.391 14.22 228.114 14.36C228.441 14.4067 228.756 14.4533 229.059 14.5C229.386 14.5467 229.713 14.5933 230.039 14.64C234.146 15.2 236.199 16.9033 236.199 19.75C236.199 21.4533 235.511 22.8767 234.134 24.02C232.781 25.0467 231.078 25.56 229.024 25.56C227.484 25.56 226.084 25.21 224.824 24.51C224.708 25.3967 224.148 25.84 223.144 25.84C221.954 25.84 221.359 25.2333 221.359 24.02C221.406 23.67 221.441 23.39 221.464 23.18C221.511 22.97 221.546 22.7833 221.569 22.62C221.593 22.4567 221.604 22.2933 221.604 22.13C221.628 21.9433 221.639 21.6867 221.639 21.36C221.639 21.1033 221.616 20.835 221.569 20.555C221.546 20.2517 221.511 19.9717 221.464 19.715C221.394 19.4117 221.359 19.0967 221.359 18.77C221.359 17.6967 221.908 17.16 223.004 17.16C223.751 17.16 224.206 17.3583 224.369 17.755C224.533 18.105 224.626 18.7467 224.649 19.68C224.673 20.4967 225.104 21.1617 225.944 21.675C226.808 22.1883 227.928 22.445 229.304 22.445C230.214 22.445 230.961 22.2233 231.544 21.78C232.151 21.3133 232.454 20.7183 232.454 19.995C232.454 18.7583 231.428 18.035 229.374 17.825C228.161 17.685 227.088 17.51 226.154 17.3C225.221 17.0667 224.439 16.7633 223.809 16.39C223.179 15.9933 222.701 15.4917 222.374 14.885C222.048 14.2783 221.884 13.52 221.884 12.61C221.884 11.77 222.048 11 222.374 10.3C222.724 9.6 223.203 9.005 223.809 8.515C224.416 8.025 225.139 7.64 225.979 7.36C226.819 7.08 227.753 6.94 228.779 6.94Z" fill="white"/>
</svg>
