<svg width="24" height="24" viewBox="0 0 24 24" fill="none" xmlns="http://www.w3.org/2000/svg">
<path d="M21.1406 17.5292C20.3963 16.7792 18.5935 15.6847 17.7188 15.2436C16.5797 14.6699 16.486 14.623 15.5906 15.2881C14.9935 15.732 14.5964 16.1286 13.8975 15.9795C13.1986 15.8305 11.6799 14.99 10.35 13.6644C9.02018 12.3388 8.13096 10.776 7.98143 10.0794C7.8319 9.38283 8.23502 8.99048 8.67471 8.39189C9.2944 7.54814 9.24752 7.40752 8.71783 6.26845C8.30486 5.38252 7.17846 3.59658 6.42565 2.85596C5.62034 2.06049 5.62034 2.20111 5.10143 2.41674C4.67898 2.59448 4.27369 2.81054 3.89065 3.06221C3.14065 3.56049 2.7244 3.97439 2.43331 4.59642C2.14221 5.21845 2.01143 6.67673 3.51471 9.40767C5.01799 12.1386 6.07268 13.535 8.25565 15.7119C10.4386 17.8888 12.1172 19.0592 14.5711 20.4355C17.6067 22.1356 18.7711 21.8042 19.395 21.5136C20.0189 21.223 20.4347 20.8105 20.9339 20.0605C21.1862 19.6781 21.4028 19.2732 21.5808 18.8511C21.7969 18.3341 21.9375 18.3341 21.1406 17.5292Z" stroke="black" stroke-width="1.5" stroke-miterlimit="10"/>
</svg>
