<svg width="24" height="24" viewBox="0 0 24 24" fill="none" xmlns="http://www.w3.org/2000/svg">
<path d="M13.5909 11.9993L18.0441 7.54614C18.2554 7.33517 18.3743 7.04888 18.3745 6.75026C18.3748 6.45164 18.2564 6.16514 18.0455 5.9538C17.8345 5.74245 17.5482 5.62357 17.2496 5.62331C16.951 5.62305 16.6645 5.74142 16.4531 5.95239L12 10.4055L7.54687 5.95239C7.33553 5.74105 7.04888 5.62231 6.75 5.62231C6.45111 5.62231 6.16447 5.74105 5.95312 5.95239C5.74178 6.16374 5.62305 6.45038 5.62305 6.74927C5.62305 7.04815 5.74178 7.3348 5.95312 7.54614L10.4062 11.9993L5.95312 16.4524C5.74178 16.6637 5.62305 16.9504 5.62305 17.2493C5.62305 17.5481 5.74178 17.8348 5.95312 18.0461C6.16447 18.2575 6.45111 18.3762 6.75 18.3762C7.04888 18.3762 7.33553 18.2575 7.54687 18.0461L12 13.593L16.4531 18.0461C16.6645 18.2575 16.9511 18.3762 17.25 18.3762C17.5489 18.3762 17.8355 18.2575 18.0469 18.0461C18.2582 17.8348 18.3769 17.5481 18.3769 17.2493C18.3769 16.9504 18.2582 16.6637 18.0469 16.4524L13.5909 11.9993Z" fill="black"/>
</svg>
