<svg width="24" height="24" viewBox="0 0 24 24" fill="none" xmlns="http://www.w3.org/2000/svg">
<mask id="path-1-inside-1_98:1039" fill="white">
<path d="M2 6C2 4.89543 2.89543 4 4 4H20C21.1046 4 22 4.89543 22 6V18C22 19.1046 21.1046 20 20 20H4C2.89543 20 2 19.1046 2 18V6ZM5.51859 6L12 11.6712L18.4814 6H5.51859ZM20 7.32877L12.6585 13.7526C12.2815 14.0825 11.7185 14.0825 11.3415 13.7526L4 7.32877V18H20V7.32877Z"/>
</mask>
<path d="M12 11.6712L8.04897 16.1867C10.3111 18.1661 13.6889 18.1661 15.951 16.1867L12 11.6712ZM5.51859 6V0C3.01894 0 0.78117 1.54971 -0.0980241 3.88964C-0.977219 6.22957 -0.313616 8.86943 1.56756 10.5155L5.51859 6ZM18.4814 6L22.4324 10.5155C24.3136 8.86943 24.9772 6.22957 24.098 3.88964C23.2188 1.54971 20.9811 0 18.4814 0V6ZM12.6585 13.7526L8.70748 9.23712L8.70747 9.23712L12.6585 13.7526ZM20 7.32877H26C26 4.97451 24.6232 2.83779 22.4793 1.86497C20.3354 0.892152 17.8207 1.26302 16.049 2.81331L20 7.32877ZM11.3415 13.7526L15.2925 9.23712L15.2925 9.23712L11.3415 13.7526ZM4 7.32877L7.95103 2.81331C6.17927 1.26302 3.66457 0.892152 1.5207 1.86497C-0.623165 2.83779 -2 4.97451 -2 7.32877H4ZM4 18H-2C-2 21.3137 0.686292 24 4 24L4 18ZM20 18V24C23.3137 24 26 21.3137 26 18H20ZM4 -2C-0.418282 -2 -4 1.58173 -4 6H8C8 8.20914 6.20914 10 4 10V-2ZM20 -2H4V10H20V-2ZM28 6C28 1.58172 24.4183 -2 20 -2V10C17.7909 10 16 8.20914 16 6H28ZM28 18V6H16V18H28ZM20 26C24.4183 26 28 22.4183 28 18H16C16 15.7909 17.7909 14 20 14V26ZM4 26H20V14H4V26ZM-4 18C-4 22.4183 -0.418272 26 4 26V14C6.20914 14 8 15.7909 8 18H-4ZM-4 6V18H8V6H-4ZM15.951 7.15577L9.46962 1.48454L1.56756 10.5155L8.04897 16.1867L15.951 7.15577ZM14.5304 1.48454L8.04897 7.15577L15.951 16.1867L22.4324 10.5155L14.5304 1.48454ZM5.51859 12H18.4814V0H5.51859V12ZM16.6095 18.268L23.951 11.8442L16.049 2.81331L8.70748 9.23712L16.6095 18.268ZM7.39046 18.268C10.0296 20.5773 13.9704 20.5773 16.6095 18.268L8.70747 9.23712C10.5926 7.58763 13.4074 7.58763 15.2925 9.23712L7.39046 18.268ZM0.0489724 11.8442L7.39047 18.268L15.2925 9.23712L7.95103 2.81331L0.0489724 11.8442ZM10 18V7.32877H-2V18H10ZM20 12H4V24H20V12ZM14 7.32877V18H26V7.32877H14Z" fill="black" mask="url(#path-1-inside-1_98:1039)"/>
</svg>
