<svg width="24" height="24" viewBox="0 0 24 24" fill="none" xmlns="http://www.w3.org/2000/svg">
<path d="M21.3413 1.49927H2.65971C2.3523 1.49939 2.05752 1.62156 1.84015 1.83893C1.62278 2.0563 1.50061 2.35108 1.50049 2.65849V21.34C1.50061 21.6474 1.62278 21.9422 1.84015 22.1596C2.05752 22.377 2.3523 22.4991 2.65971 22.4993H12.0005V14.2493H9.49033V11.2493H12.0005V8.85864C12.0005 6.14645 13.8816 4.66989 16.3045 4.66989C17.4638 4.66989 18.7106 4.75708 19.0003 4.79552V7.62817H17.07C15.7519 7.62817 15.5006 8.25161 15.5006 9.17036V11.2493H18.6413L18.2311 14.2493H15.5006V22.4993H21.3413C21.6487 22.4991 21.9434 22.377 22.1608 22.1596C22.3782 21.9422 22.5004 21.6474 22.5005 21.34V2.65849C22.5004 2.35108 22.3782 2.0563 22.1608 1.83893C21.9434 1.62156 21.6487 1.49939 21.3413 1.49927V1.49927Z" fill="black"/>
</svg>
