<svg width="24" height="24" viewBox="0 0 24 24" fill="none" xmlns="http://www.w3.org/2000/svg">
<path d="M16.3748 3.2496C17.5342 3.25306 18.645 3.71514 19.4648 4.53492C20.2846 5.3547 20.7467 6.46557 20.7501 7.62491V16.3746C20.7467 17.5339 20.2846 18.6448 19.4648 19.4646C18.645 20.2844 17.5342 20.7464 16.3748 20.7499H7.62515C6.46581 20.7464 5.35495 20.2844 4.53517 19.4646C3.71539 18.6448 3.25331 17.5339 3.24984 16.3746V7.62491C3.25331 6.46557 3.71539 5.3547 4.53517 4.53492C5.35495 3.71514 6.46581 3.25306 7.62515 3.2496H16.3748V3.2496ZM16.3748 1.49976H7.62515C4.25625 1.49976 1.5 4.256 1.5 7.62491V16.3746C1.5 19.7435 4.25625 22.4997 7.62515 22.4997H16.3748C19.7437 22.4997 22.5 19.7435 22.5 16.3746V7.62491C22.5 4.256 19.7437 1.49976 16.3748 1.49976V1.49976Z" fill="black"/>
<path d="M17.6873 7.62475C17.4277 7.62475 17.1739 7.54778 16.9581 7.40356C16.7422 7.25934 16.574 7.05436 16.4747 6.81453C16.3753 6.5747 16.3493 6.3108 16.4 6.0562C16.4506 5.8016 16.5756 5.56773 16.7592 5.38418C16.9427 5.20062 17.1766 5.07562 17.4312 5.02498C17.6858 4.97433 17.9497 5.00032 18.1895 5.09966C18.4294 5.199 18.6343 5.36723 18.7786 5.58307C18.9228 5.79891 18.9998 6.05267 18.9998 6.31226C19.0001 6.48472 18.9664 6.65556 18.9006 6.81497C18.8348 6.97437 18.7381 7.11921 18.6162 7.24116C18.4942 7.36311 18.3494 7.45977 18.19 7.5256C18.0306 7.59143 17.8597 7.62513 17.6873 7.62475V7.62475Z" fill="black"/>
<path d="M11.9998 8.49911C12.692 8.49911 13.3687 8.70439 13.9443 9.08899C14.5199 9.47359 14.9686 10.0202 15.2335 10.6598C15.4984 11.2994 15.5677 12.0031 15.4327 12.6821C15.2976 13.3611 14.9642 13.9847 14.4747 14.4742C13.9852 14.9638 13.3616 15.2971 12.6826 15.4322C12.0036 15.5672 11.2999 15.4979 10.6603 15.233C10.0207 14.9681 9.47409 14.5194 9.08948 13.9438C8.70488 13.3682 8.4996 12.6915 8.4996 11.9993C8.50059 11.0713 8.86968 10.1816 9.52587 9.52538C10.1821 8.86919 11.0718 8.5001 11.9998 8.49911V8.49911ZM11.9998 6.74927C10.9614 6.74927 9.94637 7.05717 9.08301 7.63405C8.21966 8.21093 7.54675 9.03087 7.14939 9.99018C6.75203 10.9495 6.64806 12.0051 6.85064 13.0235C7.05321 14.0419 7.55322 14.9773 8.28745 15.7116C9.02167 16.4458 9.95713 16.9458 10.9755 17.1484C11.9939 17.351 13.0495 17.247 14.0088 16.8496C14.9682 16.4523 15.7881 15.7794 16.365 14.916C16.9418 14.0526 17.2498 13.0376 17.2498 11.9993C17.2498 10.6069 16.6966 9.27152 15.7121 8.28696C14.7275 7.30239 13.3921 6.74927 11.9998 6.74927V6.74927Z" fill="black"/>
</svg>
