<svg width="24" height="24" viewBox="0 0 24 24" fill="none" xmlns="http://www.w3.org/2000/svg">
<path d="M12 2.24976C8.27344 2.24976 5.25 5.12741 5.25 8.67163C5.25 12.7497 9.75 19.2124 11.4023 21.4446C11.4709 21.5388 11.5608 21.6155 11.6647 21.6684C11.7686 21.7212 11.8835 21.7488 12 21.7488C12.1165 21.7488 12.2314 21.7212 12.3353 21.6684C12.4392 21.6155 12.5291 21.5388 12.5977 21.4446C14.25 19.2133 18.75 12.753 18.75 8.67163C18.75 5.12741 15.7266 2.24976 12 2.24976Z" stroke="black" stroke-width="1.5" stroke-linecap="round" stroke-linejoin="round"/>
<path d="M12 11.25C13.2426 11.25 14.25 10.2426 14.25 9C14.25 7.75736 13.2426 6.75 12 6.75C10.7574 6.75 9.75 7.75736 9.75 9C9.75 10.2426 10.7574 11.25 12 11.25Z" stroke="black" stroke-width="1.5" stroke-linecap="round" stroke-linejoin="round"/>
</svg>
