<svg width="24" height="24" viewBox="0 0 24 24" fill="none" xmlns="http://www.w3.org/2000/svg">
<path d="M4.01121 20.916H19.989C20.2485 20.916 20.5036 20.8486 20.7292 20.7205C20.9549 20.5924 21.1435 20.4079 21.2766 20.1851C21.4096 19.9623 21.4826 19.7088 21.4884 19.4493C21.4941 19.1899 21.4325 18.9334 21.3095 18.7049L13.321 3.86898C12.7543 2.81711 11.2459 2.81711 10.6792 3.86898L2.69074 18.7049C2.56772 18.9334 2.50608 19.1899 2.51185 19.4493C2.51761 19.7088 2.59059 19.9623 2.72365 20.1851C2.8567 20.4079 3.04529 20.5924 3.27097 20.7205C3.49664 20.8486 3.7517 20.916 4.01121 20.916V20.916Z" stroke="black" stroke-width="1.5" stroke-linecap="round" stroke-linejoin="round"/>
<path d="M11.7309 9.15856L12 14.8773L12.2686 9.1609C12.2702 9.12436 12.2644 9.08786 12.2515 9.05364C12.2385 9.01941 12.2188 8.98819 12.1934 8.96186C12.168 8.93554 12.1375 8.91467 12.1037 8.90054C12.07 8.8864 12.0337 8.8793 11.9971 8.87965V8.87965C11.9612 8.88 11.9257 8.88755 11.8927 8.90185C11.8597 8.91615 11.83 8.93691 11.8052 8.96291C11.7803 8.98891 11.761 9.01962 11.7482 9.05322C11.7355 9.08682 11.7296 9.12264 11.7309 9.15856V9.15856Z" stroke="black" stroke-width="1.5" stroke-linecap="round" stroke-linejoin="round"/>
<path d="M12 18.6201C11.8146 18.6201 11.6333 18.5651 11.4792 18.4621C11.325 18.3591 11.2048 18.2127 11.1339 18.0414C11.0629 17.8701 11.0443 17.6816 11.0805 17.4997C11.1167 17.3179 11.206 17.1508 11.3371 17.0197C11.4682 16.8886 11.6352 16.7993 11.8171 16.7631C11.999 16.727 12.1875 16.7455 12.3588 16.8165C12.5301 16.8874 12.6765 17.0076 12.7795 17.1618C12.8825 17.3159 12.9375 17.4972 12.9375 17.6826C12.9375 17.9313 12.8387 18.1697 12.6629 18.3455C12.4871 18.5213 12.2486 18.6201 12 18.6201Z" fill="black"/>
</svg>
